<?xml version="1.0" encoding="UTF-8" standalone="no"?>
<!DOCTYPE svg PUBLIC "-//W3C//DTD SVG 1.0//EN" "http://www.w3.org/TR/2001/PR-SVG-20010719/DTD/svg10.dtd">
<svg width="41cm" height="45cm" viewBox="-9 -79 814 889" xmlns="http://www.w3.org/2000/svg" xmlns:xlink="http://www.w3.org/1999/xlink">
  <g>
    <g>
      <rect style="fill: #ffffff" x="-5.79726" y="60" width="200.718" height="80"/>
      <rect style="fill: none; fill-opacity:0; stroke-width: 2; stroke: #000000" x="-5.79726" y="60" width="200.718" height="80"/>
      <rect style="fill: #ffffff" x="-5.79726" y="40" width="65.6" height="20"/>
      <rect style="fill: none; fill-opacity:0; stroke-width: 2; stroke: #000000" x="-5.79726" y="40" width="65.6" height="20"/>
      <text font-size="12.7998" style="fill: #000000;text-anchor:start;font-family:monospace;font-style:normal;font-weight:normal" x="-3.79726" y="54">Advisees</text>
    </g>
    <g>
      <rect style="fill: #ffffff" x="4.20274" y="73.25" width="179.923" height="55"/>
      <rect style="fill: none; fill-opacity:0; stroke-width: 2; stroke: #000000" x="4.20274" y="73.25" width="179.923" height="55"/>
    </g>
    <g>
      <rect style="fill: #ffffff" x="14.2027" y="83.25" width="74.9" height="36"/>
      <rect style="fill: none; fill-opacity:0; stroke-width: 2; stroke: #000000" x="14.2027" y="83.25" width="74.9" height="36"/>
      <text font-size="12.8" style="fill: #000000;text-anchor:middle;font-family:sans-serif;font-style:normal;font-weight:normal" x="51.6527" y="106.05">
        <tspan x="51.6527" y="106.05">AdvisorID</tspan>
      </text>
      <line style="fill: none; fill-opacity:0; stroke-width: 1; stroke: #000000" x1="24.2027" y1="108.7" x2="79.1027" y2="108.7"/>
    </g>
    <g>
      <rect style="fill: #ffffff" x="97.6028" y="83.3964" width="77.4" height="36"/>
      <rect style="fill: none; fill-opacity:0; stroke-width: 2; stroke: #000000" x="97.6028" y="83.3964" width="77.4" height="36"/>
      <text font-size="12.8" style="fill: #000000;text-anchor:middle;font-family:sans-serif;font-style:normal;font-weight:normal" x="136.303" y="106.196">
        <tspan x="136.303" y="106.196">StudentID</tspan>
      </text>
      <line style="fill: none; fill-opacity:0; stroke-width: 1; stroke: #000000" x1="107.603" y1="108.846" x2="165.003" y2="108.846"/>
    </g>
  </g>
  <g>
    <g>
      <rect style="fill: #ffffff" x="219.424" y="63.057" width="583.998" height="80"/>
      <rect style="fill: none; fill-opacity:0; stroke-width: 2; stroke: #000000" x="219.424" y="63.057" width="583.998" height="80"/>
      <rect style="fill: #ffffff" x="219.424" y="43.057" width="57.9" height="20"/>
      <rect style="fill: none; fill-opacity:0; stroke-width: 2; stroke: #000000" x="219.424" y="43.057" width="57.9" height="20"/>
      <text font-size="12.7998" style="fill: #000000;text-anchor:start;font-family:monospace;font-style:normal;font-weight:normal" x="221.424" y="57.057">Courses</text>
    </g>
    <g>
      <rect style="fill: #ffffff" x="230.712" y="76.4248" width="92.0814" height="55"/>
      <rect style="fill: none; fill-opacity:0; stroke-width: 2; stroke: #000000" x="230.712" y="76.4248" width="92.0814" height="55"/>
    </g>
    <g>
      <rect style="fill: #ffffff" x="240.062" y="86.385" width="72.35" height="36"/>
      <rect style="fill: none; fill-opacity:0; stroke-width: 2; stroke: #000000" x="240.062" y="86.385" width="72.35" height="36"/>
      <text font-size="12.8" style="fill: #000000;text-anchor:middle;font-family:sans-serif;font-style:normal;font-weight:normal" x="276.237" y="109.185">
        <tspan x="276.237" y="109.185">CourseID</tspan>
      </text>
      <line style="fill: none; fill-opacity:0; stroke-width: 1; stroke: #000000" x1="250.062" y1="111.835" x2="302.412" y2="111.835"/>
    </g>
    <g>
      <rect style="fill: #ffffff" x="332.562" y="86.2136" width="100.6" height="36"/>
      <rect style="fill: none; fill-opacity:0; stroke-width: 2; stroke: #000000" x="332.562" y="86.2136" width="100.6" height="36"/>
      <text font-size="12.8" style="fill: #000000;text-anchor:middle;font-family:sans-serif;font-style:normal;font-weight:normal" x="382.862" y="109.014">
        <tspan x="382.862" y="109.014">DepartmentID</tspan>
      </text>
      <line style="fill: none; fill-opacity:0; stroke-width: 1; stroke: #000000" x1="342.562" y1="111.664" x2="423.162" y2="111.664"/>
    </g>
    <g>
      <rect style="fill: #ffffff" x="439.84" y="86.2506" width="52.75" height="36"/>
      <rect style="fill: none; fill-opacity:0; stroke-width: 2; stroke: #000000" x="439.84" y="86.2506" width="52.75" height="36"/>
      <text font-size="12.8" style="fill: #000000;text-anchor:middle;font-family:sans-serif;font-style:normal;font-weight:normal" x="466.215" y="109.051">
        <tspan x="466.215" y="109.051">Name</tspan>
      </text>
      <line style="fill: none; fill-opacity:0; stroke-width: 1; stroke: #000000" x1="449.84" y1="111.701" x2="482.59" y2="111.701"/>
    </g>
    <g>
      <rect style="fill: #ffffff" x="498.75" y="86.6114" width="64.9" height="36"/>
      <rect style="fill: none; fill-opacity:0; stroke-width: 2; stroke: #000000" x="498.75" y="86.6114" width="64.9" height="36"/>
      <text font-size="12.8" style="fill: #000000;text-anchor:middle;font-family:sans-serif;font-style:normal;font-weight:normal" x="531.2" y="109.411">
        <tspan x="531.2" y="109.411">Number</tspan>
      </text>
      <line style="fill: none; fill-opacity:0; stroke-width: 1; stroke: #000000" x1="508.75" y1="112.061" x2="553.65" y2="112.061"/>
    </g>
    <g>
      <rect style="fill: #ffffff" x="569.8" y="86.724" width="59.1" height="36"/>
      <rect style="fill: none; fill-opacity:0; stroke-width: 2; stroke: #000000" x="569.8" y="86.724" width="59.1" height="36"/>
      <text font-size="12.8" style="fill: #000000;text-anchor:middle;font-family:sans-serif;font-style:normal;font-weight:normal" x="599.35" y="109.524">
        <tspan x="599.35" y="109.524">Credits</tspan>
      </text>
      <line style="fill: none; fill-opacity:0; stroke-width: 1; stroke: #000000" x1="579.8" y1="112.174" x2="618.9" y2="112.174"/>
    </g>
    <g>
      <rect style="fill: #ffffff" x="634.74" y="86.965" width="68.55" height="36"/>
      <rect style="fill: none; fill-opacity:0; stroke-width: 2; stroke: #000000" x="634.74" y="86.965" width="68.55" height="36"/>
      <text font-size="12.8" style="fill: #000000;text-anchor:middle;font-family:sans-serif;font-style:normal;font-weight:normal" x="669.015" y="109.765">
        <tspan x="669.015" y="109.765">Archived</tspan>
      </text>
      <line style="fill: none; fill-opacity:0; stroke-width: 1; stroke: #000000" x1="644.74" y1="112.415" x2="693.29" y2="112.415"/>
    </g>
    <g>
      <rect style="fill: #ffffff" x="709.348" y="86.7606" width="83.05" height="36"/>
      <rect style="fill: none; fill-opacity:0; stroke-width: 2; stroke: #000000" x="709.348" y="86.7606" width="83.05" height="36"/>
      <text font-size="12.8" style="fill: #000000;text-anchor:middle;font-family:sans-serif;font-style:normal;font-weight:normal" x="750.873" y="109.561">
        <tspan x="750.873" y="109.561">Description</tspan>
      </text>
      <line style="fill: none; fill-opacity:0; stroke-width: 1; stroke: #000000" x1="719.348" y1="112.211" x2="782.398" y2="112.211"/>
    </g>
  </g>
  <g>
    <g>
      <rect style="fill: #ffffff" x="-5.61062" y="-57.9842" width="281.62" height="80"/>
      <rect style="fill: none; fill-opacity:0; stroke-width: 2; stroke: #000000" x="-5.61062" y="-57.9842" width="281.62" height="80"/>
      <rect style="fill: #ffffff" x="-5.61062" y="-77.9842" width="73.3" height="20"/>
      <rect style="fill: none; fill-opacity:0; stroke-width: 2; stroke: #000000" x="-5.61062" y="-77.9842" width="73.3" height="20"/>
      <text font-size="12.7998" style="fill: #000000;text-anchor:start;font-family:monospace;font-style:normal;font-weight:normal" x="-3.61062" y="-63.9842">Buildings</text>
    </g>
    <g>
      <rect style="fill: #ffffff" x="8.1374" y="-43.4782" width="98.5384" height="53.8213"/>
      <rect style="fill: none; fill-opacity:0; stroke-width: 2; stroke: #000000" x="8.1374" y="-43.4782" width="98.5384" height="53.8213"/>
    </g>
    <g>
      <rect style="fill: #ffffff" x="17.9457" y="-34.2174" width="78.4" height="36"/>
      <rect style="fill: none; fill-opacity:0; stroke-width: 2; stroke: #000000" x="17.9457" y="-34.2174" width="78.4" height="36"/>
      <text font-size="12.8" style="fill: #000000;text-anchor:middle;font-family:sans-serif;font-style:normal;font-weight:normal" x="57.1457" y="-11.4174">
        <tspan x="57.1457" y="-11.4174">BuildingID</tspan>
      </text>
      <line style="fill: none; fill-opacity:0; stroke-width: 1; stroke: #000000" x1="27.9457" y1="-8.7674" x2="86.3457" y2="-8.7674"/>
    </g>
    <g>
      <rect style="fill: #ffffff" x="115.541" y="-33.8036" width="52.75" height="36"/>
      <rect style="fill: none; fill-opacity:0; stroke-width: 2; stroke: #000000" x="115.541" y="-33.8036" width="52.75" height="36"/>
      <text font-size="12.8" style="fill: #000000;text-anchor:middle;font-family:sans-serif;font-style:normal;font-weight:normal" x="141.916" y="-11.0036">
        <tspan x="141.916" y="-11.0036">Name</tspan>
      </text>
      <line style="fill: none; fill-opacity:0; stroke-width: 1; stroke: #000000" x1="125.541" y1="-8.3536" x2="158.291" y2="-8.3536"/>
    </g>
    <g>
      <rect style="fill: #ffffff" x="175.3" y="-33.8036" width="90.65" height="36"/>
      <rect style="fill: none; fill-opacity:0; stroke-width: 2; stroke: #000000" x="175.3" y="-33.8036" width="90.65" height="36"/>
      <text font-size="12.8" style="fill: #000000;text-anchor:middle;font-family:sans-serif;font-style:normal;font-weight:normal" x="220.625" y="-11.0036">
        <tspan x="220.625" y="-11.0036">Abbreviation</tspan>
      </text>
      <line style="fill: none; fill-opacity:0; stroke-width: 1; stroke: #000000" x1="185.3" y1="-8.3536" x2="255.95" y2="-8.3536"/>
    </g>
  </g>
  <g>
    <g>
      <rect style="fill: #ffffff" x="294.01" y="-56.3682" width="375.387" height="80"/>
      <rect style="fill: none; fill-opacity:0; stroke-width: 2; stroke: #000000" x="294.01" y="-56.3682" width="375.387" height="80"/>
      <rect style="fill: #ffffff" x="294.01" y="-76.3682" width="88.7" height="20"/>
      <rect style="fill: none; fill-opacity:0; stroke-width: 2; stroke: #000000" x="294.01" y="-76.3682" width="88.7" height="20"/>
      <text font-size="12.7998" style="fill: #000000;text-anchor:start;font-family:monospace;font-style:normal;font-weight:normal" x="296.01" y="-62.3682">Departments</text>
    </g>
    <g>
      <rect style="fill: #ffffff" x="431.93" y="-35.993" width="70.55" height="36"/>
      <rect style="fill: none; fill-opacity:0; stroke-width: 2; stroke: #000000" x="431.93" y="-35.993" width="70.55" height="36"/>
      <text font-size="12.8" style="fill: #000000;text-anchor:middle;font-family:sans-serif;font-style:normal;font-weight:normal" x="467.205" y="-13.193">
        <tspan x="467.205" y="-13.193">SchoolID</tspan>
      </text>
      <line style="fill: none; fill-opacity:0; stroke-width: 1; stroke: #000000" x1="441.93" y1="-10.543" x2="492.48" y2="-10.543"/>
    </g>
    <g>
      <rect style="fill: #ffffff" x="509.926" y="-35.5644" width="52.75" height="36"/>
      <rect style="fill: none; fill-opacity:0; stroke-width: 2; stroke: #000000" x="509.926" y="-35.5644" width="52.75" height="36"/>
      <text font-size="12.8" style="fill: #000000;text-anchor:middle;font-family:sans-serif;font-style:normal;font-weight:normal" x="536.301" y="-12.7644">
        <tspan x="536.301" y="-12.7644">Name</tspan>
      </text>
      <line style="fill: none; fill-opacity:0; stroke-width: 1; stroke: #000000" x1="519.926" y1="-10.1144" x2="552.676" y2="-10.1144"/>
    </g>
    <g>
      <rect style="fill: #ffffff" x="569.538" y="-34.9698" width="90.65" height="36"/>
      <rect style="fill: none; fill-opacity:0; stroke-width: 2; stroke: #000000" x="569.538" y="-34.9698" width="90.65" height="36"/>
      <text font-size="12.8" style="fill: #000000;text-anchor:middle;font-family:sans-serif;font-style:normal;font-weight:normal" x="614.863" y="-12.1698">
        <tspan x="614.863" y="-12.1698">Abbreviation</tspan>
      </text>
      <line style="fill: none; fill-opacity:0; stroke-width: 1; stroke: #000000" x1="579.538" y1="-9.5198" x2="650.188" y2="-9.5198"/>
    </g>
    <g>
      <rect style="fill: #ffffff" x="306.108" y="-43.9586" width="118.125" height="54.5232"/>
      <rect style="fill: none; fill-opacity:0; stroke-width: 2; stroke: #000000" x="306.108" y="-43.9586" width="118.125" height="54.5232"/>
    </g>
    <g>
      <rect style="fill: #ffffff" x="315.596" y="-34.4286" width="100.6" height="36"/>
      <rect style="fill: none; fill-opacity:0; stroke-width: 2; stroke: #000000" x="315.596" y="-34.4286" width="100.6" height="36"/>
      <text font-size="12.8" style="fill: #000000;text-anchor:middle;font-family:sans-serif;font-style:normal;font-weight:normal" x="365.896" y="-11.6286">
        <tspan x="365.896" y="-11.6286">DepartmentID</tspan>
      </text>
      <line style="fill: none; fill-opacity:0; stroke-width: 1; stroke: #000000" x1="325.596" y1="-8.9786" x2="406.196" y2="-8.9786"/>
    </g>
  </g>
  <g>
    <g>
      <rect style="fill: #ffffff" x="259.846" y="438.14" width="262.928" height="80.4659"/>
      <rect style="fill: none; fill-opacity:0; stroke-width: 2; stroke: #000000" x="259.846" y="438.14" width="262.928" height="80.4659"/>
      <rect style="fill: #ffffff" x="259.846" y="418.14" width="50.2" height="20"/>
      <rect style="fill: none; fill-opacity:0; stroke-width: 2; stroke: #000000" x="259.846" y="418.14" width="50.2" height="20"/>
      <text font-size="12.7998" style="fill: #000000;text-anchor:start;font-family:monospace;font-style:normal;font-weight:normal" x="261.846" y="432.14">Grades</text>
    </g>
    <g>
      <rect style="fill: #ffffff" x="271.146" y="449.038" width="175.564" height="56.7039"/>
      <rect style="fill: none; fill-opacity:0; stroke-width: 2; stroke: #000000" x="271.146" y="449.038" width="175.564" height="56.7039"/>
    </g>
    <g>
      <rect style="fill: #ffffff" x="281.504" y="460.488" width="77.4" height="36"/>
      <rect style="fill: none; fill-opacity:0; stroke-width: 2; stroke: #000000" x="281.504" y="460.488" width="77.4" height="36"/>
      <text font-size="12.8" style="fill: #000000;text-anchor:middle;font-family:sans-serif;font-style:normal;font-weight:normal" x="320.204" y="483.288">
        <tspan x="320.204" y="483.288">StudentID</tspan>
      </text>
      <line style="fill: none; fill-opacity:0; stroke-width: 1; stroke: #000000" x1="291.504" y1="485.938" x2="348.904" y2="485.938"/>
    </g>
    <g>
      <rect style="fill: #ffffff" x="365.598" y="460.67" width="72.35" height="36"/>
      <rect style="fill: none; fill-opacity:0; stroke-width: 2; stroke: #000000" x="365.598" y="460.67" width="72.35" height="36"/>
      <text font-size="12.8" style="fill: #000000;text-anchor:middle;font-family:sans-serif;font-style:normal;font-weight:normal" x="401.773" y="483.47">
        <tspan x="401.773" y="483.47">CourseID</tspan>
      </text>
      <line style="fill: none; fill-opacity:0; stroke-width: 1; stroke: #000000" x1="375.598" y1="486.12" x2="427.948" y2="486.12"/>
    </g>
    <g>
      <rect style="fill: #ffffff" x="455.838" y="461.216" width="53.7" height="36"/>
      <rect style="fill: none; fill-opacity:0; stroke-width: 2; stroke: #000000" x="455.838" y="461.216" width="53.7" height="36"/>
      <text font-size="12.8" style="fill: #000000;text-anchor:middle;font-family:sans-serif;font-style:normal;font-weight:normal" x="482.688" y="484.016">
        <tspan x="482.688" y="484.016">Grade</tspan>
      </text>
      <line style="fill: none; fill-opacity:0; stroke-width: 1; stroke: #000000" x1="465.838" y1="486.666" x2="499.538" y2="486.666"/>
    </g>
  </g>
  <g>
    <g>
      <rect style="fill: #ffffff" x="296.908" y="559.578" width="276.723" height="80"/>
      <rect style="fill: none; fill-opacity:0; stroke-width: 2; stroke: #000000" x="296.908" y="559.578" width="276.723" height="80"/>
      <rect style="fill: #ffffff" x="296.908" y="539.578" width="50.2" height="20"/>
      <rect style="fill: none; fill-opacity:0; stroke-width: 2; stroke: #000000" x="296.908" y="539.578" width="50.2" height="20"/>
      <text font-size="12.7998" style="fill: #000000;text-anchor:start;font-family:monospace;font-style:normal;font-weight:normal" x="298.908" y="553.578">Majors</text>
    </g>
    <g>
      <rect style="fill: #ffffff" x="308.024" y="573.584" width="83.3205" height="53.9975"/>
      <rect style="fill: none; fill-opacity:0; stroke-width: 2; stroke: #000000" x="308.024" y="573.584" width="83.3205" height="53.9975"/>
    </g>
    <g>
      <rect style="fill: #ffffff" x="317.024" y="582.584" width="65.2" height="36"/>
      <rect style="fill: none; fill-opacity:0; stroke-width: 2; stroke: #000000" x="317.024" y="582.584" width="65.2" height="36"/>
      <text font-size="12.8" style="fill: #000000;text-anchor:middle;font-family:sans-serif;font-style:normal;font-weight:normal" x="349.624" y="605.384">
        <tspan x="349.624" y="605.384">MajorID</tspan>
      </text>
      <line style="fill: none; fill-opacity:0; stroke-width: 1; stroke: #000000" x1="327.024" y1="608.034" x2="372.224" y2="608.034"/>
    </g>
    <g>
      <rect style="fill: #ffffff" x="400.496" y="582.9" width="100.6" height="36"/>
      <rect style="fill: none; fill-opacity:0; stroke-width: 2; stroke: #000000" x="400.496" y="582.9" width="100.6" height="36"/>
      <text font-size="12.8" style="fill: #000000;text-anchor:middle;font-family:sans-serif;font-style:normal;font-weight:normal" x="450.796" y="605.7">
        <tspan x="450.796" y="605.7">DepartmentID</tspan>
      </text>
      <line style="fill: none; fill-opacity:0; stroke-width: 1; stroke: #000000" x1="410.496" y1="608.35" x2="491.096" y2="608.35"/>
    </g>
    <g>
      <rect style="fill: #ffffff" x="510.148" y="583.024" width="52.75" height="36"/>
      <rect style="fill: none; fill-opacity:0; stroke-width: 2; stroke: #000000" x="510.148" y="583.024" width="52.75" height="36"/>
      <text font-size="12.8" style="fill: #000000;text-anchor:middle;font-family:sans-serif;font-style:normal;font-weight:normal" x="536.523" y="605.824">
        <tspan x="536.523" y="605.824">Name</tspan>
      </text>
      <line style="fill: none; fill-opacity:0; stroke-width: 1; stroke: #000000" x1="520.148" y1="608.474" x2="552.898" y2="608.474"/>
    </g>
  </g>
  <g>
    <g>
      <rect style="fill: #ffffff" x="434.744" y="301.04" width="291.22" height="80"/>
      <rect style="fill: none; fill-opacity:0; stroke-width: 2; stroke: #000000" x="434.744" y="301.04" width="291.22" height="80"/>
      <rect style="fill: #ffffff" x="434.744" y="281.04" width="104.1" height="20"/>
      <rect style="fill: none; fill-opacity:0; stroke-width: 2; stroke: #000000" x="434.744" y="281.04" width="104.1" height="20"/>
      <text font-size="12.7998" style="fill: #000000;text-anchor:start;font-family:monospace;font-style:normal;font-weight:normal" x="436.744" y="295.04">Prerequisites</text>
    </g>
    <g>
      <rect style="fill: #ffffff" x="448.858" y="314.226" width="92.9947" height="52.8433"/>
      <rect style="fill: none; fill-opacity:0; stroke-width: 2; stroke: #000000" x="448.858" y="314.226" width="92.9947" height="52.8433"/>
    </g>
    <g>
      <rect style="fill: #ffffff" x="458.358" y="323.226" width="72.35" height="36"/>
      <rect style="fill: none; fill-opacity:0; stroke-width: 2; stroke: #000000" x="458.358" y="323.226" width="72.35" height="36"/>
      <text font-size="12.8" style="fill: #000000;text-anchor:middle;font-family:sans-serif;font-style:normal;font-weight:normal" x="494.533" y="346.026">
        <tspan x="494.533" y="346.026">CourseID</tspan>
      </text>
      <line style="fill: none; fill-opacity:0; stroke-width: 1; stroke: #000000" x1="468.358" y1="348.676" x2="520.708" y2="348.676"/>
    </g>
    <g>
      <rect style="fill: #ffffff" x="551.674" y="323.976" width="100.15" height="36"/>
      <rect style="fill: none; fill-opacity:0; stroke-width: 2; stroke: #000000" x="551.674" y="323.976" width="100.15" height="36"/>
      <text font-size="12.8" style="fill: #000000;text-anchor:middle;font-family:sans-serif;font-style:normal;font-weight:normal" x="601.749" y="346.776">
        <tspan x="601.749" y="346.776">PrerequisiteID</tspan>
      </text>
      <line style="fill: none; fill-opacity:0; stroke-width: 1; stroke: #000000" x1="561.674" y1="349.426" x2="641.824" y2="349.426"/>
    </g>
    <g>
      <rect style="fill: #ffffff" x="660.168" y="323.976" width="54.35" height="36"/>
      <rect style="fill: none; fill-opacity:0; stroke-width: 2; stroke: #000000" x="660.168" y="323.976" width="54.35" height="36"/>
      <text font-size="12.8" style="fill: #000000;text-anchor:middle;font-family:sans-serif;font-style:normal;font-weight:normal" x="687.343" y="346.776">
        <tspan x="687.343" y="346.776">Group</tspan>
      </text>
      <line style="fill: none; fill-opacity:0; stroke-width: 1; stroke: #000000" x1="670.168" y1="349.426" x2="704.518" y2="349.426"/>
    </g>
  </g>
  <g>
    <g>
      <rect style="fill: #ffffff" x="-5.51036" y="560.974" width="278.26" height="80"/>
      <rect style="fill: none; fill-opacity:0; stroke-width: 2; stroke: #000000" x="-5.51036" y="560.974" width="278.26" height="80"/>
      <rect style="fill: #ffffff" x="-5.51036" y="540.974" width="57.9" height="20"/>
      <rect style="fill: none; fill-opacity:0; stroke-width: 2; stroke: #000000" x="-5.51036" y="540.974" width="57.9" height="20"/>
      <text font-size="12.7998" style="fill: #000000;text-anchor:start;font-family:monospace;font-style:normal;font-weight:normal" x="-3.51036" y="554.974">Schools</text>
    </g>
    <g>
      <rect style="fill: #ffffff" x="6.27934" y="573.416" width="91.6952" height="54.1002"/>
      <rect style="fill: none; fill-opacity:0; stroke-width: 2; stroke: #000000" x="6.27934" y="573.416" width="91.6952" height="54.1002"/>
    </g>
    <g>
      <rect style="fill: #ffffff" x="17.2828" y="582.586" width="70.55" height="36"/>
      <rect style="fill: none; fill-opacity:0; stroke-width: 2; stroke: #000000" x="17.2828" y="582.586" width="70.55" height="36"/>
      <text font-size="12.8" style="fill: #000000;text-anchor:middle;font-family:sans-serif;font-style:normal;font-weight:normal" x="52.5578" y="605.386">
        <tspan x="52.5578" y="605.386">SchoolID</tspan>
      </text>
      <line style="fill: none; fill-opacity:0; stroke-width: 1; stroke: #000000" x1="27.2828" y1="608.036" x2="77.8328" y2="608.036"/>
    </g>
    <g>
      <rect style="fill: #ffffff" x="107.594" y="583.128" width="52.75" height="36"/>
      <rect style="fill: none; fill-opacity:0; stroke-width: 2; stroke: #000000" x="107.594" y="583.128" width="52.75" height="36"/>
      <text font-size="12.8" style="fill: #000000;text-anchor:middle;font-family:sans-serif;font-style:normal;font-weight:normal" x="133.969" y="605.928">
        <tspan x="133.969" y="605.928">Name</tspan>
      </text>
      <line style="fill: none; fill-opacity:0; stroke-width: 1; stroke: #000000" x1="117.594" y1="608.578" x2="150.344" y2="608.578"/>
    </g>
    <g>
      <rect style="fill: #ffffff" x="170.175" y="583.472" width="90.65" height="36"/>
      <rect style="fill: none; fill-opacity:0; stroke-width: 2; stroke: #000000" x="170.175" y="583.472" width="90.65" height="36"/>
      <text font-size="12.8" style="fill: #000000;text-anchor:middle;font-family:sans-serif;font-style:normal;font-weight:normal" x="215.5" y="606.272">
        <tspan x="215.5" y="606.272">Abbreviation</tspan>
      </text>
      <line style="fill: none; fill-opacity:0; stroke-width: 1; stroke: #000000" x1="180.175" y1="608.922" x2="250.825" y2="608.922"/>
    </g>
  </g>
  <g>
    <g>
      <rect style="fill: #ffffff" x="-4.79424" y="300" width="190.955" height="80"/>
      <rect style="fill: none; fill-opacity:0; stroke-width: 2; stroke: #000000" x="-4.79424" y="300" width="190.955" height="80"/>
      <rect style="fill: #ffffff" x="-4.79424" y="280" width="104.1" height="20"/>
      <rect style="fill: none; fill-opacity:0; stroke-width: 2; stroke: #000000" x="-4.79424" y="280" width="104.1" height="20"/>
      <text font-size="12.7998" style="fill: #000000;text-anchor:start;font-family:monospace;font-style:normal;font-weight:normal" x="-2.79424" y="294">StudentMajors</text>
    </g>
    <g>
      <rect style="fill: #ffffff" x="4.82006" y="311.262" width="171.233" height="58.2668"/>
      <rect style="fill: none; fill-opacity:0; stroke-width: 2; stroke: #000000" x="4.82006" y="311.262" width="171.233" height="58.2668"/>
    </g>
    <g>
      <rect style="fill: #ffffff" x="16.7113" y="323.152" width="77.4" height="36"/>
      <rect style="fill: none; fill-opacity:0; stroke-width: 2; stroke: #000000" x="16.7113" y="323.152" width="77.4" height="36"/>
      <text font-size="12.8" style="fill: #000000;text-anchor:middle;font-family:sans-serif;font-style:normal;font-weight:normal" x="55.4113" y="345.952">
        <tspan x="55.4113" y="345.952">StudentID</tspan>
      </text>
      <line style="fill: none; fill-opacity:0; stroke-width: 1; stroke: #000000" x1="26.7113" y1="348.602" x2="84.1113" y2="348.602"/>
    </g>
    <g>
      <rect style="fill: #ffffff" x="101.187" y="323.26" width="65.2" height="36"/>
      <rect style="fill: none; fill-opacity:0; stroke-width: 2; stroke: #000000" x="101.187" y="323.26" width="65.2" height="36"/>
      <text font-size="12.8" style="fill: #000000;text-anchor:middle;font-family:sans-serif;font-style:normal;font-weight:normal" x="133.787" y="346.06">
        <tspan x="133.787" y="346.06">MajorID</tspan>
      </text>
      <line style="fill: none; fill-opacity:0; stroke-width: 1; stroke: #000000" x1="111.187" y1="348.71" x2="156.387" y2="348.71"/>
    </g>
  </g>
  <g>
    <g>
      <rect style="fill: #ffffff" x="206.542" y="300" width="207.34" height="80"/>
      <rect style="fill: none; fill-opacity:0; stroke-width: 2; stroke: #000000" x="206.542" y="300" width="207.34" height="80"/>
      <rect style="fill: #ffffff" x="206.542" y="280" width="119.5" height="20"/>
      <rect style="fill: none; fill-opacity:0; stroke-width: 2; stroke: #000000" x="206.542" y="280" width="119.5" height="20"/>
      <text font-size="12.7998" style="fill: #000000;text-anchor:start;font-family:monospace;font-style:normal;font-weight:normal" x="208.542" y="294">SectionStudents</text>
    </g>
    <g>
      <rect style="fill: #ffffff" x="217.716" y="311.608" width="183.975" height="57.1768"/>
      <rect style="fill: none; fill-opacity:0; stroke-width: 2; stroke: #000000" x="217.716" y="311.608" width="183.975" height="57.1768"/>
    </g>
    <g>
      <rect style="fill: #ffffff" x="229.488" y="323.38" width="74.65" height="36"/>
      <rect style="fill: none; fill-opacity:0; stroke-width: 2; stroke: #000000" x="229.488" y="323.38" width="74.65" height="36"/>
      <text font-size="12.8" style="fill: #000000;text-anchor:middle;font-family:sans-serif;font-style:normal;font-weight:normal" x="266.813" y="346.18">
        <tspan x="266.813" y="346.18">SectionID</tspan>
      </text>
      <line style="fill: none; fill-opacity:0; stroke-width: 1; stroke: #000000" x1="239.488" y1="348.83" x2="294.138" y2="348.83"/>
    </g>
    <g>
      <rect style="fill: #ffffff" x="313.31" y="323.33" width="77.4" height="36"/>
      <rect style="fill: none; fill-opacity:0; stroke-width: 2; stroke: #000000" x="313.31" y="323.33" width="77.4" height="36"/>
      <text font-size="12.8" style="fill: #000000;text-anchor:middle;font-family:sans-serif;font-style:normal;font-weight:normal" x="352.01" y="346.13">
        <tspan x="352.01" y="346.13">StudentID</tspan>
      </text>
      <line style="fill: none; fill-opacity:0; stroke-width: 1; stroke: #000000" x1="323.31" y1="348.78" x2="380.71" y2="348.78"/>
    </g>
  </g>
  <g>
    <g>
      <rect style="fill: #ffffff" x="490.586" y="180" width="213.838" height="80"/>
      <rect style="fill: none; fill-opacity:0; stroke-width: 2; stroke: #000000" x="490.586" y="180" width="213.838" height="80"/>
      <rect style="fill: #ffffff" x="490.586" y="160" width="142.6" height="20"/>
      <rect style="fill: none; fill-opacity:0; stroke-width: 2; stroke: #000000" x="490.586" y="160" width="142.6" height="20"/>
      <text font-size="12.7998" style="fill: #000000;text-anchor:start;font-family:monospace;font-style:normal;font-weight:normal" x="492.586" y="174">SectionInstructors</text>
    </g>
    <g>
      <rect style="fill: #ffffff" x="502.404" y="191.739" width="191.509" height="56.3922"/>
      <rect style="fill: none; fill-opacity:0; stroke-width: 2; stroke: #000000" x="502.404" y="191.739" width="191.509" height="56.3922"/>
    </g>
    <g>
      <rect style="fill: #ffffff" x="512.49" y="202.742" width="74.65" height="36"/>
      <rect style="fill: none; fill-opacity:0; stroke-width: 2; stroke: #000000" x="512.49" y="202.742" width="74.65" height="36"/>
      <text font-size="12.8" style="fill: #000000;text-anchor:middle;font-family:sans-serif;font-style:normal;font-weight:normal" x="549.815" y="225.542">
        <tspan x="549.815" y="225.542">SectionID</tspan>
      </text>
      <line style="fill: none; fill-opacity:0; stroke-width: 1; stroke: #000000" x1="522.49" y1="228.192" x2="577.14" y2="228.192"/>
    </g>
    <g>
      <rect style="fill: #ffffff" x="595.856" y="202.858" width="88.95" height="36"/>
      <rect style="fill: none; fill-opacity:0; stroke-width: 2; stroke: #000000" x="595.856" y="202.858" width="88.95" height="36"/>
      <text font-size="12.8" style="fill: #000000;text-anchor:middle;font-family:sans-serif;font-style:normal;font-weight:normal" x="640.331" y="225.658">
        <tspan x="640.331" y="225.658">InstructorID</tspan>
      </text>
      <line style="fill: none; fill-opacity:0; stroke-width: 1; stroke: #000000" x1="605.856" y1="228.308" x2="674.806" y2="228.308"/>
    </g>
  </g>
  <g>
    <g>
      <rect style="fill: #ffffff" x="548.59" y="439.466" width="169.395" height="80"/>
      <rect style="fill: none; fill-opacity:0; stroke-width: 2; stroke: #000000" x="548.59" y="439.466" width="169.395" height="80"/>
      <rect style="fill: #ffffff" x="548.59" y="419.466" width="88.7" height="20"/>
      <rect style="fill: none; fill-opacity:0; stroke-width: 2; stroke: #000000" x="548.59" y="419.466" width="88.7" height="20"/>
      <text font-size="12.7998" style="fill: #000000;text-anchor:start;font-family:monospace;font-style:normal;font-weight:normal" x="550.59" y="433.466">SectionDays</text>
    </g>
    <g>
      <rect style="fill: #ffffff" x="559.886" y="454.002" width="146.101" height="53.3279"/>
      <rect style="fill: none; fill-opacity:0; stroke-width: 2; stroke: #000000" x="559.886" y="454.002" width="146.101" height="53.3279"/>
    </g>
    <g>
      <rect style="fill: #ffffff" x="569.7" y="462.726" width="74.65" height="36"/>
      <rect style="fill: none; fill-opacity:0; stroke-width: 2; stroke: #000000" x="569.7" y="462.726" width="74.65" height="36"/>
      <text font-size="12.8" style="fill: #000000;text-anchor:middle;font-family:sans-serif;font-style:normal;font-weight:normal" x="607.025" y="485.526">
        <tspan x="607.025" y="485.526">SectionID</tspan>
      </text>
      <line style="fill: none; fill-opacity:0; stroke-width: 1; stroke: #000000" x1="579.7" y1="488.176" x2="634.35" y2="488.176"/>
    </g>
    <g>
      <rect style="fill: #ffffff" x="654.08" y="462.736" width="41.8" height="36"/>
      <rect style="fill: none; fill-opacity:0; stroke-width: 2; stroke: #000000" x="654.08" y="462.736" width="41.8" height="36"/>
      <text font-size="12.8" style="fill: #000000;text-anchor:middle;font-family:sans-serif;font-style:normal;font-weight:normal" x="674.98" y="485.536">
        <tspan x="674.98" y="485.536">Day</tspan>
      </text>
      <line style="fill: none; fill-opacity:0; stroke-width: 1; stroke: #000000" x1="664.08" y1="488.186" x2="685.88" y2="488.186"/>
    </g>
  </g>
  <g>
    <g>
      <rect style="fill: #ffffff" x="-5.83112" y="178.587" width="475.748" height="80"/>
      <rect style="fill: none; fill-opacity:0; stroke-width: 2; stroke: #000000" x="-5.83112" y="178.587" width="475.748" height="80"/>
      <rect style="fill: #ffffff" x="-5.83112" y="158.587" width="42.5" height="20"/>
      <rect style="fill: none; fill-opacity:0; stroke-width: 2; stroke: #000000" x="-5.83112" y="158.587" width="42.5" height="20"/>
      <text font-size="12.7998" style="fill: #000000;text-anchor:start;font-family:monospace;font-style:normal;font-weight:normal" x="-3.83112" y="172.587">Users</text>
    </g>
    <g>
      <rect style="fill: #ffffff" x="5.27396" y="191.167" width="78.1971" height="55.4948"/>
      <rect style="fill: none; fill-opacity:0; stroke-width: 2; stroke: #000000" x="5.27396" y="191.167" width="78.1971" height="55.4948"/>
    </g>
    <g>
      <rect style="fill: #ffffff" x="15.3639" y="202.098" width="58.4" height="36"/>
      <rect style="fill: none; fill-opacity:0; stroke-width: 2; stroke: #000000" x="15.3639" y="202.098" width="58.4" height="36"/>
      <text font-size="12.8" style="fill: #000000;text-anchor:middle;font-family:sans-serif;font-style:normal;font-weight:normal" x="44.5639" y="224.898">
        <tspan x="44.5639" y="224.898">UnivID</tspan>
      </text>
      <line style="fill: none; fill-opacity:0; stroke-width: 1; stroke: #000000" x1="25.3639" y1="227.548" x2="63.7639" y2="227.548"/>
    </g>
    <g>
      <rect style="fill: #ffffff" x="93.0612" y="202.098" width="59.45" height="36"/>
      <rect style="fill: none; fill-opacity:0; stroke-width: 2; stroke: #000000" x="93.0612" y="202.098" width="59.45" height="36"/>
      <text font-size="12.8" style="fill: #000000;text-anchor:middle;font-family:sans-serif;font-style:normal;font-weight:normal" x="122.786" y="224.898">
        <tspan x="122.786" y="224.898">FName</tspan>
      </text>
      <line style="fill: none; fill-opacity:0; stroke-width: 1; stroke: #000000" x1="103.061" y1="227.548" x2="142.511" y2="227.548"/>
    </g>
    <g>
      <rect style="fill: #ffffff" x="161.187" y="202.06" width="59.1" height="36"/>
      <rect style="fill: none; fill-opacity:0; stroke-width: 2; stroke: #000000" x="161.187" y="202.06" width="59.1" height="36"/>
      <text font-size="12.8" style="fill: #000000;text-anchor:middle;font-family:sans-serif;font-style:normal;font-weight:normal" x="190.737" y="224.86">
        <tspan x="190.737" y="224.86">LName</tspan>
      </text>
      <line style="fill: none; fill-opacity:0; stroke-width: 1; stroke: #000000" x1="171.187" y1="227.51" x2="210.287" y2="227.51"/>
    </g>
    <g>
      <rect style="fill: #ffffff" x="227.836" y="202.06" width="50.55" height="36"/>
      <rect style="fill: none; fill-opacity:0; stroke-width: 2; stroke: #000000" x="227.836" y="202.06" width="50.55" height="36"/>
      <text font-size="12.8" style="fill: #000000;text-anchor:middle;font-family:sans-serif;font-style:normal;font-weight:normal" x="253.111" y="224.86">
        <tspan x="253.111" y="224.86">Email</tspan>
      </text>
      <line style="fill: none; fill-opacity:0; stroke-width: 1; stroke: #000000" x1="237.836" y1="227.51" x2="268.386" y2="227.51"/>
    </g>
    <g>
      <rect style="fill: #ffffff" x="286.332" y="202.06" width="44.6" height="36"/>
      <rect style="fill: none; fill-opacity:0; stroke-width: 2; stroke: #000000" x="286.332" y="202.06" width="44.6" height="36"/>
      <text font-size="12.8" style="fill: #000000;text-anchor:middle;font-family:sans-serif;font-style:normal;font-weight:normal" x="308.632" y="224.86">
        <tspan x="308.632" y="224.86">Role</tspan>
      </text>
      <line style="fill: none; fill-opacity:0; stroke-width: 1; stroke: #000000" x1="296.332" y1="227.51" x2="320.932" y2="227.51"/>
    </g>
    <g>
      <rect style="fill: #ffffff" x="338.328" y="202.06" width="73.3" height="36"/>
      <rect style="fill: none; fill-opacity:0; stroke-width: 2; stroke: #000000" x="338.328" y="202.06" width="73.3" height="36"/>
      <text font-size="12.8" style="fill: #000000;text-anchor:middle;font-family:sans-serif;font-style:normal;font-weight:normal" x="374.978" y="224.86">
        <tspan x="374.978" y="224.86">Password</tspan>
      </text>
      <line style="fill: none; fill-opacity:0; stroke-width: 1; stroke: #000000" x1="348.328" y1="227.51" x2="401.628" y2="227.51"/>
    </g>
    <g>
      <rect style="fill: #ffffff" x="418.62" y="202.06" width="41.1" height="36"/>
      <rect style="fill: none; fill-opacity:0; stroke-width: 2; stroke: #000000" x="418.62" y="202.06" width="41.1" height="36"/>
      <text font-size="12.8" style="fill: #000000;text-anchor:middle;font-family:sans-serif;font-style:normal;font-weight:normal" x="439.17" y="224.86">
        <tspan x="439.17" y="224.86">Salt</tspan>
      </text>
      <line style="fill: none; fill-opacity:0; stroke-width: 1; stroke: #000000" x1="428.62" y1="227.51" x2="449.72" y2="227.51"/>
    </g>
  </g>
  <g>
    <g>
      <rect style="fill: #ffffff" x="-7.68666" y="437.654" width="240.786" height="80"/>
      <rect style="fill: none; fill-opacity:0; stroke-width: 2; stroke: #000000" x="-7.68666" y="437.654" width="240.786" height="80"/>
      <rect style="fill: #ffffff" x="-7.68666" y="417.654" width="165.7" height="20"/>
      <rect style="fill: none; fill-opacity:0; stroke-width: 2; stroke: #000000" x="-7.68666" y="417.654" width="165.7" height="20"/>
      <text font-size="12.7998" style="fill: #000000;text-anchor:start;font-family:monospace;font-style:normal;font-weight:normal" x="-5.68666" y="431.654">DepartmentInstructors</text>
    </g>
    <g>
      <rect style="fill: #ffffff" x="2.28148" y="449.032" width="219.148" height="58.3529"/>
      <rect style="fill: none; fill-opacity:0; stroke-width: 2; stroke: #000000" x="2.28148" y="449.032" width="219.148" height="58.3529"/>
    </g>
    <g>
      <rect style="fill: #ffffff" x="12.6553" y="460.702" width="100.6" height="36"/>
      <rect style="fill: none; fill-opacity:0; stroke-width: 2; stroke: #000000" x="12.6553" y="460.702" width="100.6" height="36"/>
      <text font-size="12.8" style="fill: #000000;text-anchor:middle;font-family:sans-serif;font-style:normal;font-weight:normal" x="62.9553" y="483.502">
        <tspan x="62.9553" y="483.502">DepartmentID</tspan>
      </text>
      <line style="fill: none; fill-opacity:0; stroke-width: 1; stroke: #000000" x1="22.6553" y1="486.152" x2="103.255" y2="486.152"/>
    </g>
    <g>
      <rect style="fill: #ffffff" x="122.386" y="460.082" width="88.95" height="36"/>
      <rect style="fill: none; fill-opacity:0; stroke-width: 2; stroke: #000000" x="122.386" y="460.082" width="88.95" height="36"/>
      <text font-size="12.8" style="fill: #000000;text-anchor:middle;font-family:sans-serif;font-style:normal;font-weight:normal" x="166.861" y="482.882">
        <tspan x="166.861" y="482.882">InstructorID</tspan>
      </text>
      <line style="fill: none; fill-opacity:0; stroke-width: 1; stroke: #000000" x1="132.386" y1="485.532" x2="201.336" y2="485.532"/>
    </g>
  </g>
  <g>
    <g>
      <rect style="fill: #ffffff" x="-4.92846" y="679.246" width="495.03" height="129.517"/>
      <rect style="fill: none; fill-opacity:0; stroke-width: 2; stroke: #000000" x="-4.92846" y="679.246" width="495.03" height="129.517"/>
      <rect style="fill: #ffffff" x="-4.92846" y="659.246" width="65.6" height="20"/>
      <rect style="fill: none; fill-opacity:0; stroke-width: 2; stroke: #000000" x="-4.92846" y="659.246" width="65.6" height="20"/>
      <text font-size="12.7998" style="fill: #000000;text-anchor:start;font-family:monospace;font-style:normal;font-weight:normal" x="-2.92846" y="673.246">Sections</text>
    </g>
    <g>
      <rect style="fill: #ffffff" x="7.22826" y="690.892" width="97.0848" height="55.7594"/>
      <rect style="fill: none; fill-opacity:0; stroke-width: 2; stroke: #000000" x="7.22826" y="690.892" width="97.0848" height="55.7594"/>
    </g>
    <g>
      <rect style="fill: #ffffff" x="18.6976" y="701.848" width="74.65" height="36"/>
      <rect style="fill: none; fill-opacity:0; stroke-width: 2; stroke: #000000" x="18.6976" y="701.848" width="74.65" height="36"/>
      <text font-size="12.8" style="fill: #000000;text-anchor:middle;font-family:sans-serif;font-style:normal;font-weight:normal" x="56.0226" y="724.648">
        <tspan x="56.0226" y="724.648">SectionID</tspan>
      </text>
      <line style="fill: none; fill-opacity:0; stroke-width: 1; stroke: #000000" x1="28.6976" y1="727.298" x2="83.3476" y2="727.298"/>
    </g>
    <g>
      <rect style="fill: #ffffff" x="114.647" y="701.362" width="72.35" height="36"/>
      <rect style="fill: none; fill-opacity:0; stroke-width: 2; stroke: #000000" x="114.647" y="701.362" width="72.35" height="36"/>
      <text font-size="12.8" style="fill: #000000;text-anchor:middle;font-family:sans-serif;font-style:normal;font-weight:normal" x="150.822" y="724.162">
        <tspan x="150.822" y="724.162">CourseID</tspan>
      </text>
      <line style="fill: none; fill-opacity:0; stroke-width: 1; stroke: #000000" x1="124.647" y1="726.812" x2="176.997" y2="726.812"/>
    </g>
    <g>
      <rect style="fill: #ffffff" x="196.101" y="701.362" width="78.4" height="36"/>
      <rect style="fill: none; fill-opacity:0; stroke-width: 2; stroke: #000000" x="196.101" y="701.362" width="78.4" height="36"/>
      <text font-size="12.8" style="fill: #000000;text-anchor:middle;font-family:sans-serif;font-style:normal;font-weight:normal" x="235.301" y="724.162">
        <tspan x="235.301" y="724.162">BuildingID</tspan>
      </text>
      <line style="fill: none; fill-opacity:0; stroke-width: 1; stroke: #000000" x1="206.101" y1="726.812" x2="264.501" y2="726.812"/>
    </g>
    <g>
      <rect style="fill: #ffffff" x="282.258" y="700.766" width="64.9" height="36"/>
      <rect style="fill: none; fill-opacity:0; stroke-width: 2; stroke: #000000" x="282.258" y="700.766" width="64.9" height="36"/>
      <text font-size="12.8" style="fill: #000000;text-anchor:middle;font-family:sans-serif;font-style:normal;font-weight:normal" x="314.708" y="723.566">
        <tspan x="314.708" y="723.566">Number</tspan>
      </text>
      <line style="fill: none; fill-opacity:0; stroke-width: 1; stroke: #000000" x1="292.258" y1="726.216" x2="337.158" y2="726.216"/>
    </g>
    <g>
      <rect style="fill: #ffffff" x="354.596" y="700.766" width="72.75" height="36"/>
      <rect style="fill: none; fill-opacity:0; stroke-width: 2; stroke: #000000" x="354.596" y="700.766" width="72.75" height="36"/>
      <text font-size="12.8" style="fill: #000000;text-anchor:middle;font-family:sans-serif;font-style:normal;font-weight:normal" x="390.971" y="723.566">
        <tspan x="390.971" y="723.566">Semester</tspan>
      </text>
      <line style="fill: none; fill-opacity:0; stroke-width: 1; stroke: #000000" x1="364.596" y1="726.216" x2="417.346" y2="726.216"/>
    </g>
    <g>
      <rect style="fill: #ffffff" x="434.266" y="700.766" width="45.6" height="36"/>
      <rect style="fill: none; fill-opacity:0; stroke-width: 2; stroke: #000000" x="434.266" y="700.766" width="45.6" height="36"/>
      <text font-size="12.8" style="fill: #000000;text-anchor:middle;font-family:sans-serif;font-style:normal;font-weight:normal" x="457.066" y="723.566">
        <tspan x="457.066" y="723.566">Year</tspan>
      </text>
      <line style="fill: none; fill-opacity:0; stroke-width: 1; stroke: #000000" x1="444.266" y1="726.216" x2="469.866" y2="726.216"/>
    </g>
    <g>
      <rect style="fill: #ffffff" x="6.9791" y="759.054" width="52.6" height="36"/>
      <rect style="fill: none; fill-opacity:0; stroke-width: 2; stroke: #000000" x="6.9791" y="759.054" width="52.6" height="36"/>
      <text font-size="12.8" style="fill: #000000;text-anchor:middle;font-family:sans-serif;font-style:normal;font-weight:normal" x="33.2791" y="781.854">
        <tspan x="33.2791" y="781.854">Room</tspan>
      </text>
      <line style="fill: none; fill-opacity:0; stroke-width: 1; stroke: #000000" x1="16.9791" y1="784.504" x2="49.5791" y2="784.504"/>
    </g>
    <g>
      <rect style="fill: #ffffff" x="67.3272" y="758.882" width="123.4" height="36"/>
      <rect style="fill: none; fill-opacity:0; stroke-width: 2; stroke: #000000" x="67.3272" y="758.882" width="123.4" height="36"/>
      <text font-size="12.8" style="fill: #000000;text-anchor:middle;font-family:sans-serif;font-style:normal;font-weight:normal" x="129.027" y="781.682">
        <tspan x="129.027" y="781.682">StartDateAndTime</tspan>
      </text>
      <line style="fill: none; fill-opacity:0; stroke-width: 1; stroke: #000000" x1="77.3272" y1="784.332" x2="180.727" y2="784.332"/>
    </g>
    <g>
      <rect style="fill: #ffffff" x="198.307" y="758.882" width="117.8" height="36"/>
      <rect style="fill: none; fill-opacity:0; stroke-width: 2; stroke: #000000" x="198.307" y="758.882" width="117.8" height="36"/>
      <text font-size="12.8" style="fill: #000000;text-anchor:middle;font-family:sans-serif;font-style:normal;font-weight:normal" x="257.207" y="781.682">
        <tspan x="257.207" y="781.682">EndDateAndTime</tspan>
      </text>
      <line style="fill: none; fill-opacity:0; stroke-width: 1; stroke: #000000" x1="208.307" y1="784.332" x2="306.107" y2="784.332"/>
    </g>
    <g>
      <rect style="fill: #ffffff" x="324.01" y="758.462" width="103.65" height="36"/>
      <rect style="fill: none; fill-opacity:0; stroke-width: 2; stroke: #000000" x="324.01" y="758.462" width="103.65" height="36"/>
      <text font-size="12.8" style="fill: #000000;text-anchor:middle;font-family:sans-serif;font-style:normal;font-weight:normal" x="375.835" y="781.262">
        <tspan x="375.835" y="781.262">MaxEnrollment</tspan>
      </text>
      <line style="fill: none; fill-opacity:0; stroke-width: 1; stroke: #000000" x1="334.01" y1="783.912" x2="417.66" y2="783.912"/>
    </g>
  </g>
</svg>
