<?xml version="1.0" encoding="UTF-8" standalone="no"?>
<!DOCTYPE svg PUBLIC "-//W3C//DTD SVG 1.0//EN" "http://www.w3.org/TR/2001/PR-SVG-20010719/DTD/svg10.dtd">
<svg width="41cm" height="19cm" viewBox="-4 43 818 361" xmlns="http://www.w3.org/2000/svg" xmlns:xlink="http://www.w3.org/1999/xlink">
  <g>
    <rect style="fill: #ffffff" x="111" y="124" width="105" height="36"/>
    <rect style="fill: none; fill-opacity:0; stroke-width: 2; stroke: #000000" x="111" y="124" width="105" height="36"/>
    <text font-size="12.7998" style="fill: #000000;text-anchor:middle;font-family:monospace;font-style:normal;font-weight:normal" x="163.5" y="146">Instructor</text>
  </g>
  <g>
    <rect style="fill: #ffffff" x="252" y="70" width="89.6" height="36"/>
    <rect style="fill: none; fill-opacity:0; stroke-width: 2; stroke: #000000" x="252" y="70" width="89.6" height="36"/>
    <text font-size="12.7998" style="fill: #000000;text-anchor:middle;font-family:monospace;font-style:normal;font-weight:normal" x="296.8" y="92">Schedule</text>
  </g>
  <g>
    <rect style="fill: #ffffff" x="131" y="244" width="105" height="36"/>
    <rect style="fill: none; fill-opacity:0; stroke-width: 2; stroke: #000000" x="131" y="244" width="105" height="36"/>
    <text font-size="12.7998" style="fill: #000000;text-anchor:middle;font-family:monospace;font-style:normal;font-weight:normal" x="183.5" y="266">Department</text>
  </g>
  <g>
    <rect style="fill: #ffffff" x="614" y="278" width="81.9" height="36"/>
    <rect style="fill: none; fill-opacity:0; stroke-width: 2; stroke: #000000" x="614" y="278" width="81.9" height="36"/>
    <text font-size="12.7998" style="fill: #000000;text-anchor:middle;font-family:monospace;font-style:normal;font-weight:normal" x="654.95" y="300">Section</text>
  </g>
  <g>
    <rect style="fill: #ffffff" x="416" y="77" width="74.2" height="36"/>
    <rect style="fill: none; fill-opacity:0; stroke-width: 2; stroke: #000000" x="416" y="77" width="74.2" height="36"/>
    <text font-size="12.7998" style="fill: #000000;text-anchor:middle;font-family:monospace;font-style:normal;font-weight:normal" x="453.1" y="99">Course</text>
  </g>
  <g>
    <rect style="fill: #ffffff" x="516" y="148" width="89.6" height="36"/>
    <rect style="fill: none; fill-opacity:0; stroke-width: 2; stroke: #000000" x="516" y="148" width="89.6" height="36"/>
    <text font-size="12.7998" style="fill: #000000;text-anchor:middle;font-family:monospace;font-style:normal;font-weight:normal" x="560.8" y="170">Semester</text>
  </g>
  <g>
    <rect style="fill: #ffffff" x="311" y="224" width="81.9" height="36"/>
    <rect style="fill: none; fill-opacity:0; stroke-width: 2; stroke: #000000" x="311" y="224" width="81.9" height="36"/>
    <text font-size="12.7998" style="fill: #000000;text-anchor:middle;font-family:monospace;font-style:normal;font-weight:normal" x="351.95" y="246">Student</text>
  </g>
  <g>
    <rect style="fill: #ffffff" x="371" y="344" width="66.5" height="36"/>
    <rect style="fill: none; fill-opacity:0; stroke-width: 2; stroke: #000000" x="371" y="344" width="66.5" height="36"/>
    <text font-size="12.7998" style="fill: #000000;text-anchor:middle;font-family:monospace;font-style:normal;font-weight:normal" x="404.25" y="366">Major</text>
  </g>
  <g>
    <rect style="fill: #ffffff" x="722" y="159" width="89.6" height="36"/>
    <rect style="fill: none; fill-opacity:0; stroke-width: 2; stroke: #000000" x="722" y="159" width="89.6" height="36"/>
    <text font-size="12.7998" style="fill: #000000;text-anchor:middle;font-family:monospace;font-style:normal;font-weight:normal" x="766.8" y="181">Building</text>
  </g>
  <g>
    <polyline style="fill: none; fill-opacity:0; stroke-width: 2; stroke: #000000" points="163.5,160 163.5,202 183.5,202 183.5,244 "/>
    <line style="fill: none; fill-opacity:0; stroke-width: 2; stroke: #000000" x1="163.5" y1="172" x2="169.5" y2="160"/>
    <line style="fill: none; fill-opacity:0; stroke-width: 2; stroke: #000000" x1="163.5" y1="172" x2="157.5" y2="160"/>
    <line style="fill: none; fill-opacity:0; stroke-width: 2; stroke: #000000" x1="183.5" y1="232" x2="177.5" y2="244"/>
    <line style="fill: none; fill-opacity:0; stroke-width: 2; stroke: #000000" x1="183.5" y1="232" x2="189.5" y2="244"/>
    <line style="fill: none; fill-opacity:0; stroke-width: 2; stroke: #000000" x1="177.5" y1="232" x2="189.5" y2="232"/>
  </g>
  <g>
    <polyline style="fill: none; fill-opacity:0; stroke-width: 2; stroke: #000000" points="404.25,344 404.25,302 351.95,302 351.95,260 "/>
    <line style="fill: none; fill-opacity:0; stroke-width: 2; stroke: #000000" x1="404.25" y1="332" x2="398.25" y2="344"/>
    <line style="fill: none; fill-opacity:0; stroke-width: 2; stroke: #000000" x1="404.25" y1="332" x2="410.25" y2="344"/>
    <line style="fill: none; fill-opacity:0; stroke-width: 2; stroke: #000000" x1="398.25" y1="332" x2="410.25" y2="332"/>
    <line style="fill: none; fill-opacity:0; stroke-width: 2; stroke: #000000" x1="351.95" y1="272" x2="357.95" y2="260"/>
    <line style="fill: none; fill-opacity:0; stroke-width: 2; stroke: #000000" x1="351.95" y1="272" x2="345.95" y2="260"/>
  </g>
  <g>
    <polyline style="fill: none; fill-opacity:0; stroke-width: 2; stroke: #000000" points="371,362 183.5,362 183.5,280 "/>
    <line style="fill: none; fill-opacity:0; stroke-width: 2; stroke: #000000" x1="359" y1="362" x2="371" y2="368"/>
    <line style="fill: none; fill-opacity:0; stroke-width: 2; stroke: #000000" x1="359" y1="362" x2="371" y2="356"/>
    <line style="fill: none; fill-opacity:0; stroke-width: 2; stroke: #000000" x1="177.5" y1="286" x2="189.5" y2="286"/>
    <line style="fill: none; fill-opacity:0; stroke-width: 2; stroke: #000000" x1="177.5" y1="292" x2="189.5" y2="292"/>
  </g>
  <g>
    <polyline style="fill: none; fill-opacity:0; stroke-width: 2; stroke: #000000" points="392.9,242 503.45,242 503.45,296 614,296 "/>
    <line style="fill: none; fill-opacity:0; stroke-width: 2; stroke: #000000" x1="404.9" y1="242" x2="392.9" y2="236"/>
    <line style="fill: none; fill-opacity:0; stroke-width: 2; stroke: #000000" x1="404.9" y1="242" x2="392.9" y2="248"/>
    <path style="fill: none; fill-opacity:0; stroke-width: 2; stroke: #000000" d="M 407.9 242 C 407.9,239 409.4,236 410.9,236 C 412.4,236 413.9,239 413.9,242 C 413.9,245 412.4,248 410.9,248 C 409.4,248 407.9,245 407.9,242"/>
    <line style="fill: none; fill-opacity:0; stroke-width: 2; stroke: #000000" x1="602" y1="296" x2="614" y2="302"/>
    <line style="fill: none; fill-opacity:0; stroke-width: 2; stroke: #000000" x1="602" y1="296" x2="614" y2="290"/>
    <path style="fill: none; fill-opacity:0; stroke-width: 2; stroke: #000000" d="M 599 296 C 599,299 597.5,302 596,302 C 594.5,302 593,299 593,296 C 593,293 594.5,290 596,290 C 597.5,290 599,293 599,296"/>
  </g>
  <g>
    <polyline style="fill: none; fill-opacity:0; stroke-width: 2; stroke: #000000" points="111,142 90,142 90,404 654.95,404 654.95,314 "/>
    <line style="fill: none; fill-opacity:0; stroke-width: 2; stroke: #000000" x1="99" y1="142" x2="111" y2="148"/>
    <line style="fill: none; fill-opacity:0; stroke-width: 2; stroke: #000000" x1="99" y1="142" x2="111" y2="136"/>
    <line style="fill: none; fill-opacity:0; stroke-width: 2; stroke: #000000" x1="99" y1="148" x2="99" y2="136"/>
    <line style="fill: none; fill-opacity:0; stroke-width: 2; stroke: #000000" x1="654.95" y1="326" x2="660.95" y2="314"/>
    <line style="fill: none; fill-opacity:0; stroke-width: 2; stroke: #000000" x1="654.95" y1="326" x2="648.95" y2="314"/>
    <path style="fill: none; fill-opacity:0; stroke-width: 2; stroke: #000000" d="M 654.95 329 C 657.95,329 660.95,330.5 660.95,332 C 660.95,333.5 657.95,335 654.95,335 C 651.95,335 648.95,333.5 648.95,332 C 648.95,330.5 651.95,329 654.95,329"/>
  </g>
  <g>
    <polyline style="fill: none; fill-opacity:0; stroke-width: 2; stroke: #000000" points="654.95,278 654.95,45 453.1,45 453.1,77 "/>
    <line style="fill: none; fill-opacity:0; stroke-width: 2; stroke: #000000" x1="654.95" y1="266" x2="648.95" y2="278"/>
    <line style="fill: none; fill-opacity:0; stroke-width: 2; stroke: #000000" x1="654.95" y1="266" x2="660.95" y2="278"/>
    <path style="fill: none; fill-opacity:0; stroke-width: 2; stroke: #000000" d="M 654.95 263 C 651.95,263 648.95,261.5 648.95,260 C 648.95,258.5 651.95,257 654.95,257 C 657.95,257 660.95,258.5 660.95,260 C 660.95,261.5 657.95,263 654.95,263"/>
    <line style="fill: none; fill-opacity:0; stroke-width: 2; stroke: #000000" x1="459.1" y1="71" x2="447.1" y2="71"/>
    <line style="fill: none; fill-opacity:0; stroke-width: 2; stroke: #000000" x1="459.1" y1="65" x2="447.1" y2="65"/>
  </g>
  <g>
    <polyline style="fill: none; fill-opacity:0; stroke-width: 2; stroke: #000000" points="766.8,195 766.8,296 695.9,296 "/>
    <line style="fill: none; fill-opacity:0; stroke-width: 2; stroke: #000000" x1="760.8" y1="201" x2="772.8" y2="201"/>
    <line style="fill: none; fill-opacity:0; stroke-width: 2; stroke: #000000" x1="760.8" y1="207" x2="772.8" y2="207"/>
    <line style="fill: none; fill-opacity:0; stroke-width: 2; stroke: #000000" x1="701.9" y1="302" x2="701.9" y2="290"/>
    <line style="fill: none; fill-opacity:0; stroke-width: 2; stroke: #000000" x1="707.9" y1="302" x2="707.9" y2="290"/>
  </g>
  <g>
    <polyline style="fill: none; fill-opacity:0; stroke-width: 2; stroke: #000000" points="311,224 311,165 296.8,165 296.8,106 "/>
    <line style="fill: none; fill-opacity:0; stroke-width: 2; stroke: #000000" x1="317" y1="218" x2="305" y2="218"/>
    <line style="fill: none; fill-opacity:0; stroke-width: 2; stroke: #000000" x1="317" y1="212" x2="305" y2="212"/>
    <line style="fill: none; fill-opacity:0; stroke-width: 2; stroke: #000000" x1="290.8" y1="112" x2="302.8" y2="112"/>
    <line style="fill: none; fill-opacity:0; stroke-width: 2; stroke: #000000" x1="290.8" y1="118" x2="302.8" y2="118"/>
  </g>
  <g>
    <polyline style="fill: none; fill-opacity:0; stroke-width: 2; stroke: #000000" points="560.8,184 560.8,231 614,231 614,278 "/>
    <line style="fill: none; fill-opacity:0; stroke-width: 2; stroke: #000000" x1="554.8" y1="190" x2="566.8" y2="190"/>
    <line style="fill: none; fill-opacity:0; stroke-width: 2; stroke: #000000" x1="554.8" y1="196" x2="566.8" y2="196"/>
    <line style="fill: none; fill-opacity:0; stroke-width: 2; stroke: #000000" x1="614" y1="266" x2="608" y2="278"/>
    <line style="fill: none; fill-opacity:0; stroke-width: 2; stroke: #000000" x1="614" y1="266" x2="620" y2="278"/>
  </g>
  <g>
    <polyline style="fill: none; fill-opacity:0; stroke-width: 2; stroke: #000000" points="490.2,95 560.8,95 560.8,148 "/>
    <line style="fill: none; fill-opacity:0; stroke-width: 2; stroke: #000000" x1="502.2" y1="95" x2="490.2" y2="89"/>
    <line style="fill: none; fill-opacity:0; stroke-width: 2; stroke: #000000" x1="502.2" y1="95" x2="490.2" y2="101"/>
    <line style="fill: none; fill-opacity:0; stroke-width: 2; stroke: #000000" x1="560.8" y1="136" x2="554.8" y2="148"/>
    <line style="fill: none; fill-opacity:0; stroke-width: 2; stroke: #000000" x1="560.8" y1="136" x2="566.8" y2="148"/>
    <path style="fill: none; fill-opacity:0; stroke-width: 2; stroke: #000000" d="M 560.8 133 C 557.8,133 554.8,131.5 554.8,130 C 554.8,128.5 557.8,127 560.8,127 C 563.8,127 566.8,128.5 566.8,130 C 566.8,131.5 563.8,133 560.8,133"/>
  </g>
  <g>
    <polyline style="fill: none; fill-opacity:0; stroke-width: 2; stroke: #000000" points="216,160 263,160 263,242 311,242 "/>
    <line style="fill: none; fill-opacity:0; stroke-width: 2; stroke: #000000" x1="228" y1="160" x2="216" y2="154"/>
    <line style="fill: none; fill-opacity:0; stroke-width: 2; stroke: #000000" x1="228" y1="160" x2="216" y2="166"/>
    <line style="fill: none; fill-opacity:0; stroke-width: 2; stroke: #000000" x1="228" y1="154" x2="228" y2="166"/>
    <line style="fill: none; fill-opacity:0; stroke-width: 2; stroke: #000000" x1="299" y1="242" x2="311" y2="248"/>
    <line style="fill: none; fill-opacity:0; stroke-width: 2; stroke: #000000" x1="299" y1="242" x2="311" y2="236"/>
    <path style="fill: none; fill-opacity:0; stroke-width: 2; stroke: #000000" d="M 296 242 C 296,245 294.5,248 293,248 C 291.5,248 290,245 290,242 C 290,239 291.5,236 293,236 C 294.5,236 296,239 296,242"/>
  </g>
  <g>
    <polyline style="fill: none; fill-opacity:0; stroke-width: 2; stroke: #000000" points="416,77 416,45 61,45 61,262 131,262 "/>
    <line style="fill: none; fill-opacity:0; stroke-width: 2; stroke: #000000" x1="416" y1="65" x2="410" y2="77"/>
    <line style="fill: none; fill-opacity:0; stroke-width: 2; stroke: #000000" x1="416" y1="65" x2="422" y2="77"/>
    <line style="fill: none; fill-opacity:0; stroke-width: 2; stroke: #000000" x1="125" y1="256" x2="125" y2="268"/>
    <line style="fill: none; fill-opacity:0; stroke-width: 2; stroke: #000000" x1="119" y1="256" x2="119" y2="268"/>
  </g>
  <g>
    <rect style="fill: #ffffff" x="436.753" y="135.062" width="66.5" height="36"/>
    <rect style="fill: none; fill-opacity:0; stroke-width: 2; stroke: #000000" x="436.753" y="135.062" width="66.5" height="36"/>
    <text font-size="12.7998" style="fill: #000000;text-anchor:middle;font-family:monospace;font-style:normal;font-weight:normal" x="470.003" y="157.062">Grade</text>
  </g>
  <text font-size="12.7998" style="fill: #000000;text-anchor:start;font-family:sans-serif;font-style:normal;font-weight:normal" x="534" y="290">
    <tspan x="534" y="290">Enrolls In</tspan>
  </text>
  <text font-size="12.7998" style="fill: #000000;text-anchor:start;font-family:sans-serif;font-style:normal;font-weight:normal" x="424" y="237">
    <tspan x="424" y="237">Contains</tspan>
  </text>
  <text font-size="12.7998" style="fill: #000000;text-anchor:start;font-family:sans-serif;font-style:normal;font-weight:normal" x="659" y="350">
    <tspan x="659" y="350">Teaches</tspan>
  </text>
  <text font-size="12.8" style="fill: #000000;text-anchor:start;font-family:sans-serif;font-style:normal;font-weight:normal" x="97.0454" y="173.597">
    <tspan x="97.0454" y="173.597">Is Taught</tspan>
    <tspan x="97.0454" y="189.597">By</tspan>
  </text>
  <text font-size="12.7998" style="fill: #000000;text-anchor:start;font-family:sans-serif;font-style:normal;font-weight:normal" x="168.337" y="180.66">
    <tspan x="168.337" y="180.66">Employs</tspan>
  </text>
  <text font-size="12.7998" style="fill: #000000;text-anchor:start;font-family:sans-serif;font-style:normal;font-weight:normal" x="187.902" y="211.284">
    <tspan x="187.902" y="211.284">Works</tspan>
    <tspan x="187.902" y="227.284">For</tspan>
  </text>
  <text font-size="12.7998" style="fill: #000000;text-anchor:start;font-family:sans-serif;font-style:normal;font-weight:normal" x="187.902" y="311.662">
    <tspan x="187.902" y="311.662">Is Offered </tspan>
    <tspan x="187.902" y="327.662">By</tspan>
  </text>
  <text font-size="12.7998" style="fill: #000000;text-anchor:start;font-family:sans-serif;font-style:normal;font-weight:normal" x="301.04" y="133.023">
    <tspan x="301.04" y="133.023">Has</tspan>
  </text>
  <text font-size="12.7998" style="fill: #000000;text-anchor:start;font-family:sans-serif;font-style:normal;font-weight:normal" x="315.501" y="179.809">
    <tspan x="315.501" y="179.809">Belongs</tspan>
    <tspan x="315.501" y="195.809">To</tspan>
  </text>
  <text font-size="12.7998" style="fill: #000000;text-anchor:start;font-family:sans-serif;font-style:normal;font-weight:normal" x="390.36" y="150.036">
    <tspan x="390.36" y="150.036">Earns</tspan>
  </text>
  <text font-size="12.7998" style="fill: #000000;text-anchor:start;font-family:sans-serif;font-style:normal;font-weight:normal" x="417.581" y="212.985">
    <tspan x="417.581" y="212.985">Is Earned By</tspan>
  </text>
  <text font-size="12.7998" style="fill: #000000;text-anchor:start;font-family:sans-serif;font-style:normal;font-weight:normal" x="317.203" y="357.598">
    <tspan x="317.203" y="357.598">Offeres</tspan>
  </text>
  <text font-size="12.7998" style="fill: #000000;text-anchor:start;font-family:sans-serif;font-style:normal;font-weight:normal" x="409.925" y="326.123">
    <tspan x="409.925" y="326.123">Has</tspan>
  </text>
  <text font-size="12.7998" style="fill: #000000;text-anchor:start;font-family:sans-serif;font-style:normal;font-weight:normal" x="356.333" y="279.337">
    <tspan x="356.333" y="279.337">Is Taken</tspan>
    <tspan x="356.333" y="295.337">By</tspan>
  </text>
  <text font-size="12.7998" style="fill: #000000;text-anchor:start;font-family:sans-serif;font-style:normal;font-weight:normal" x="770.606" y="222.342">
    <tspan x="770.606" y="222.342">Is Held </tspan>
    <tspan x="770.606" y="238.342">In</tspan>
  </text>
  <text font-size="12.7998" style="fill: #000000;text-anchor:start;font-family:sans-serif;font-style:normal;font-weight:normal" x="712.761" y="309.961">
    <tspan x="712.761" y="309.961">Contains</tspan>
  </text>
  <text font-size="12.7998" style="fill: #000000;text-anchor:start;font-family:sans-serif;font-style:normal;font-weight:normal" x="564.746" y="208.732">
    <tspan x="564.746" y="208.732">Is Offered </tspan>
    <tspan x="564.746" y="224.732">In</tspan>
  </text>
  <text font-size="12.7998" style="fill: #000000;text-anchor:start;font-family:sans-serif;font-style:normal;font-weight:normal" x="587.714" y="260.622">
    <tspan x="587.714" y="260.622">Has</tspan>
  </text>
  <text font-size="12.7998" style="fill: #000000;text-anchor:start;font-family:sans-serif;font-style:normal;font-weight:normal" x="233.838" y="122.815">
    <tspan x="233.838" y="122.815">Is</tspan>
    <tspan x="233.838" y="138.815">Advised </tspan>
    <tspan x="233.838" y="154.815">By</tspan>
  </text>
  <text font-size="12.7998" style="fill: #000000;text-anchor:start;font-family:sans-serif;font-style:normal;font-weight:normal" x="258.507" y="258.921">
    <tspan x="258.507" y="258.921">Advises</tspan>
  </text>
  <text font-size="12.7998" style="fill: #000000;text-anchor:start;font-family:sans-serif;font-style:normal;font-weight:normal" x="375.898" y="59.0149">
    <tspan x="375.898" y="59.0149">Offers</tspan>
  </text>
  <text font-size="12.8" style="fill: #000000;text-anchor:end;font-family:sans-serif;font-style:normal;font-weight:normal" x="57.7503" y="245.31">
    <tspan x="57.7503" y="245.31">Is Offered </tspan>
    <tspan x="57.7503" y="261.31">By</tspan>
  </text>
  <text font-size="12.7998" style="fill: #000000;text-anchor:start;font-family:sans-serif;font-style:normal;font-weight:normal" x="660.871" y="252.116">
    <tspan x="660.871" y="252.116">Has</tspan>
  </text>
  <text font-size="12.7998" style="fill: #000000;text-anchor:start;font-family:sans-serif;font-style:normal;font-weight:normal" x="460.114" y="59.8655">
    <tspan x="460.114" y="59.8655">Corresponds To</tspan>
  </text>
  <g>
    <polyline style="fill: none; fill-opacity:0; stroke-width: 2; stroke: #000000" points="392.9,224 414.827,224 414.827,153.062 436.753,153.062 "/>
    <line style="fill: none; fill-opacity:0; stroke-width: 2; stroke: #000000" x1="398.9" y1="230" x2="398.9" y2="218"/>
    <line style="fill: none; fill-opacity:0; stroke-width: 2; stroke: #000000" x1="404.9" y1="230" x2="404.9" y2="218"/>
    <line style="fill: none; fill-opacity:0; stroke-width: 2; stroke: #000000" x1="424.753" y1="153.062" x2="436.753" y2="159.062"/>
    <line style="fill: none; fill-opacity:0; stroke-width: 2; stroke: #000000" x1="424.753" y1="153.062" x2="436.753" y2="147.062"/>
  </g>
</svg>
