<?xml version="1.0" encoding="UTF-8" standalone="no"?>
<!DOCTYPE svg PUBLIC "-//W3C//DTD SVG 1.0//EN" "http://www.w3.org/TR/2001/PR-SVG-20010719/DTD/svg10.dtd">
<svg width="16cm" height="10cm" viewBox="159 79 314 197" xmlns="http://www.w3.org/2000/svg" xmlns:xlink="http://www.w3.org/1999/xlink">
  <g>
    <rect style="fill: #ffffff" x="300" y="80" width="46.3" height="36"/>
    <rect style="fill: none; fill-opacity:0; stroke-width: 2; stroke: #000000" x="300" y="80" width="46.3" height="36"/>
    <text font-size="12.8" style="fill: #000000;text-anchor:middle;font-family:sans-serif;font-style:normal;font-weight:normal" x="323.15" y="102.8">
      <tspan x="323.15" y="102.8">:GUI</tspan>
    </text>
    <line style="fill: none; fill-opacity:0; stroke-width: 1; stroke: #000000" x1="310" y1="105.45" x2="336.3" y2="105.45"/>
  </g>
  <g>
    <line style="fill: none; fill-opacity:0; stroke-width: 1; stroke-dasharray: 8; stroke: #000000" x1="323.15" y1="116" x2="323.15" y2="140"/>
    <line style="fill: none; fill-opacity:0; stroke-width: 1; stroke-dasharray: 8; stroke: #000000" x1="323.15" y1="270" x2="323.15" y2="275"/>
    <rect style="fill: #ffffff" x="316.15" y="140" width="14" height="130"/>
    <rect style="fill: none; fill-opacity:0; stroke-width: 2; stroke: #000000" x="316.15" y="140" width="14" height="130"/>
  </g>
  <ellipse style="fill: #000000" cx="170" cy="141" rx="10" ry="10"/>
  <g>
    <line style="fill: none; fill-opacity:0; stroke-width: 2; stroke: #000000" x1="299.15" y1="140.125" x2="180" y2="141"/>
    <polygon style="fill: #000000" points="299.187,145.125 315.15,140.007 299.114,135.125 "/>
    <polygon style="fill: none; fill-opacity:0; stroke-width: 2; stroke: #000000" points="299.187,145.125 315.15,140.007 299.114,135.125 "/>
  </g>
  <g>
    <line style="fill: none; fill-opacity:0; stroke-width: 2; stroke: #000000" x1="330.15" y1="170" x2="360" y2="170"/>
    <line style="fill: none; fill-opacity:0; stroke-width: 2; stroke: #000000" x1="360" y1="170" x2="360" y2="200"/>
    <line style="fill: none; fill-opacity:0; stroke-width: 2; stroke: #000000" x1="347.15" y1="200" x2="360" y2="200"/>
    <polygon style="fill: #000000" points="347.15,195 331.15,200 347.15,205 "/>
    <polygon style="fill: none; fill-opacity:0; stroke-width: 2; stroke: #000000" points="347.15,195 331.15,200 347.15,205 "/>
    <text font-size="12.7998" style="fill: #000000;text-anchor:middle;font-family:sans-serif;font-style:normal;font-weight:normal" x="388.002" y="165">Logout(username)</text>
  </g>
  <text font-size="14.6756" style="fill: #000000;text-anchor:start;font-family:sans-serif;font-style:normal;font-weight:700" x="197.5" y="107.1">
    <tspan x="197.5" y="107.1">Logout</tspan>
  </text>
  <g>
    <line style="fill: none; fill-opacity:0; stroke-width: 2; stroke: #000000" x1="330.15" y1="230" x2="360.466" y2="230"/>
    <line style="fill: none; fill-opacity:0; stroke-width: 2; stroke: #000000" x1="360.466" y1="230" x2="360.466" y2="257.814"/>
    <line style="fill: none; fill-opacity:0; stroke-width: 2; stroke: #000000" x1="347.15" y1="257.814" x2="360.466" y2="257.814"/>
    <polygon style="fill: #000000" points="347.15,252.814 331.15,257.814 347.15,262.814 "/>
    <polygon style="fill: none; fill-opacity:0; stroke-width: 2; stroke: #000000" points="347.15,252.814 331.15,257.814 347.15,262.814 "/>
    <text font-size="12.7998" style="fill: #000000;text-anchor:middle;font-family:sans-serif;font-style:normal;font-weight:normal" x="403.002" y="227">Redirect(homePageURL)</text>
  </g>
</svg>
