<?xml version="1.0" encoding="UTF-8" standalone="no"?>
<!DOCTYPE svg PUBLIC "-//W3C//DTD SVG 1.0//EN" "http://www.w3.org/TR/2001/PR-SVG-20010719/DTD/svg10.dtd">
<svg width="46cm" height="40cm" viewBox="65 139 907 799" xmlns="http://www.w3.org/2000/svg" xmlns:xlink="http://www.w3.org/1999/xlink">
  <g>
    <rect style="fill: #ffffff" x="240" y="140" width="46.3" height="36"/>
    <rect style="fill: none; fill-opacity:0; stroke-width: 2; stroke: #000000" x="240" y="140" width="46.3" height="36"/>
    <text font-size="12.8" style="fill: #000000;text-anchor:middle;font-family:sans-serif;font-style:normal;font-weight:normal" x="263.15" y="162.8">
      <tspan x="263.15" y="162.8">:GUI</tspan>
    </text>
    <line style="fill: none; fill-opacity:0; stroke-width: 1; stroke: #000000" x1="250" y1="165.45" x2="276.3" y2="165.45"/>
  </g>
  <g>
    <line style="fill: none; fill-opacity:0; stroke-width: 1; stroke-dasharray: 8; stroke: #000000" x1="263.15" y1="176" x2="263.15" y2="200"/>
    <line style="fill: none; fill-opacity:0; stroke-width: 1; stroke-dasharray: 8; stroke: #000000" x1="263.15" y1="900" x2="263.15" y2="913"/>
    <rect style="fill: #ffffff" x="256.15" y="200" width="14" height="700"/>
    <rect style="fill: none; fill-opacity:0; stroke-width: 2; stroke: #000000" x="256.15" y="200" width="14" height="700"/>
  </g>
  <ellipse style="fill: #000000" cx="90" cy="201" rx="10" ry="10"/>
  <g>
    <line style="fill: none; fill-opacity:0; stroke-width: 2; stroke: #000000" x1="239.15" y1="200.109" x2="100" y2="201"/>
    <polygon style="fill: #000000" points="239.182,205.109 255.15,200.006 239.118,195.109 "/>
    <polygon style="fill: none; fill-opacity:0; stroke-width: 2; stroke: #000000" points="239.182,205.109 255.15,200.006 239.118,195.109 "/>
  </g>
  <text font-size="14.6756" style="fill: #000000;text-anchor:middle;font-family:sans-serif;font-style:normal;font-weight:700" x="160" y="160">
    <tspan x="160" y="160">Override Course</tspan>
    <tspan x="160" y="178.344">Prerequisites</tspan>
  </text>
  <g>
    <rect style="fill: #ffffff" x="620" y="140" width="136.6" height="36"/>
    <rect style="fill: none; fill-opacity:0; stroke-width: 2; stroke: #000000" x="620" y="140" width="136.6" height="36"/>
    <text font-size="12.8" style="fill: #000000;text-anchor:middle;font-family:sans-serif;font-style:normal;font-weight:normal" x="688.3" y="162.8">
      <tspan x="688.3" y="162.8">:CourseManagement</tspan>
    </text>
    <line style="fill: none; fill-opacity:0; stroke-width: 1; stroke: #000000" x1="630" y1="165.45" x2="746.6" y2="165.45"/>
  </g>
  <g>
    <line style="fill: none; fill-opacity:0; stroke-width: 1; stroke-dasharray: 8; stroke: #000000" x1="688.3" y1="176" x2="688.3" y2="627.285"/>
    <line style="fill: none; fill-opacity:0; stroke-width: 1; stroke-dasharray: 8; stroke: #000000" x1="688.3" y1="827.285" x2="688.3" y2="859"/>
    <rect style="fill: #ffffff" x="681.3" y="627.285" width="14" height="200"/>
    <rect style="fill: none; fill-opacity:0; stroke-width: 2; stroke: #000000" x="681.3" y="627.285" width="14" height="200"/>
  </g>
  <g>
    <rect style="fill: #ffffff" x="410" y="140" width="123.2" height="36"/>
    <rect style="fill: none; fill-opacity:0; stroke-width: 2; stroke: #000000" x="410" y="140" width="123.2" height="36"/>
    <text font-size="12.8" style="fill: #000000;text-anchor:middle;font-family:sans-serif;font-style:normal;font-weight:normal" x="471.6" y="162.8">
      <tspan x="471.6" y="162.8">:UserManagement</tspan>
    </text>
    <line style="fill: none; fill-opacity:0; stroke-width: 1; stroke: #000000" x1="420" y1="165.45" x2="523.2" y2="165.45"/>
  </g>
  <g>
    <line style="fill: none; fill-opacity:0; stroke-width: 1; stroke-dasharray: 8; stroke: #000000" x1="471.6" y1="176" x2="471.6" y2="200"/>
    <line style="fill: none; fill-opacity:0; stroke-width: 1; stroke-dasharray: 8; stroke: #000000" x1="471.6" y1="570" x2="471.6" y2="575"/>
    <rect style="fill: #ffffff" x="464.6" y="200" width="14" height="370"/>
    <rect style="fill: none; fill-opacity:0; stroke-width: 2; stroke: #000000" x="464.6" y="200" width="14" height="370"/>
  </g>
  <g>
    <line style="fill: none; fill-opacity:0; stroke-width: 2; stroke: #000000" x1="447.6" y1="230" x2="270.15" y2="230"/>
    <polygon style="fill: #000000" points="447.6,235 463.6,230 447.6,225 "/>
    <polygon style="fill: none; fill-opacity:0; stroke-width: 2; stroke: #000000" points="447.6,235 463.6,230 447.6,225 "/>
    <text font-size="12.7998" style="fill: #000000;text-anchor:middle;font-family:sans-serif;font-style:normal;font-weight:normal" x="367" y="225">GetAdvisees(instructorID)</text>
  </g>
  <g>
    <rect style="fill: #ffffff" x="820" y="140" width="150.4" height="36"/>
    <rect style="fill: none; fill-opacity:0; stroke-width: 2; stroke: #000000" x="820" y="140" width="150.4" height="36"/>
    <text font-size="12.8" style="fill: #000000;text-anchor:middle;font-family:sans-serif;font-style:normal;font-weight:normal" x="895.2" y="162.8">
      <tspan x="895.2" y="162.8">:DatabaseManagement</tspan>
    </text>
    <line style="fill: none; fill-opacity:0; stroke-width: 1; stroke: #000000" x1="830" y1="165.45" x2="960.4" y2="165.45"/>
  </g>
  <g>
    <line style="fill: none; fill-opacity:0; stroke-width: 1; stroke-dasharray: 8; stroke: #000000" x1="895.2" y1="176" x2="895.2" y2="200"/>
    <line style="fill: none; fill-opacity:0; stroke-width: 1; stroke-dasharray: 8; stroke: #000000" x1="895.2" y1="930" x2="895.2" y2="937.5"/>
    <rect style="fill: #ffffff" x="888.2" y="200" width="14" height="730"/>
    <rect style="fill: none; fill-opacity:0; stroke-width: 2; stroke: #000000" x="888.2" y="200" width="14" height="730"/>
  </g>
  <g>
    <line style="fill: none; fill-opacity:0; stroke-width: 2; stroke: #000000" x1="871.2" y1="250" x2="478.6" y2="250"/>
    <polygon style="fill: #000000" points="871.2,255 887.2,250 871.2,245 "/>
    <polygon style="fill: none; fill-opacity:0; stroke-width: 2; stroke: #000000" points="871.2,255 887.2,250 871.2,245 "/>
    <text font-size="12.7998" style="fill: #000000;text-anchor:middle;font-family:sans-serif;font-style:normal;font-weight:normal" x="598.3" y="244">GetAdvisees(instructorID)</text>
  </g>
  <g>
    <line style="fill: none; fill-opacity:0; stroke-width: 2; stroke-dasharray: 8; stroke: #000000" x1="495.6" y1="280" x2="888.2" y2="280"/>
    <polygon style="fill: #000000" points="495.6,275 479.6,280 495.6,285 "/>
    <polygon style="fill: none; fill-opacity:0; stroke-width: 2; stroke: #000000" points="495.6,275 479.6,280 495.6,285 "/>
    <text font-size="12.7998" style="fill: #000000;text-anchor:middle;font-family:sans-serif;font-style:normal;font-weight:normal" x="784.3" y="276">advisees</text>
  </g>
  <g>
    <line style="fill: none; fill-opacity:0; stroke-width: 2; stroke-dasharray: 8; stroke: #000000" x1="287.15" y1="300" x2="464.6" y2="300"/>
    <polygon style="fill: #000000" points="287.15,295 271.15,300 287.15,305 "/>
    <polygon style="fill: none; fill-opacity:0; stroke-width: 2; stroke: #000000" points="287.15,295 271.15,300 287.15,305 "/>
    <text font-size="12.7998" style="fill: #000000;text-anchor:middle;font-family:sans-serif;font-style:normal;font-weight:normal" x="379" y="297">advisees</text>
  </g>
  <g>
    <line style="fill: none; fill-opacity:0; stroke-width: 2; stroke: #000000" x1="256.15" y1="315" x2="224" y2="315"/>
    <line style="fill: none; fill-opacity:0; stroke-width: 2; stroke: #000000" x1="224" y1="315" x2="224" y2="349"/>
    <line style="fill: none; fill-opacity:0; stroke-width: 2; stroke: #000000" x1="239.15" y1="349" x2="224" y2="349"/>
    <polygon style="fill: #000000" points="239.15,354 255.15,349 239.15,344 "/>
    <polygon style="fill: none; fill-opacity:0; stroke-width: 2; stroke: #000000" points="239.15,354 255.15,349 239.15,344 "/>
    <text font-size="12.7998" style="fill: #000000;text-anchor:middle;font-family:sans-serif;font-style:normal;font-weight:normal" x="179" y="309">DisplayAdvisees(advisees)</text>
  </g>
  <g>
    <line style="fill: none; fill-opacity:0; stroke-width: 2; stroke: #000000" x1="447.6" y1="495" x2="270.15" y2="495"/>
    <polygon style="fill: #000000" points="447.6,500 463.6,495 447.6,490 "/>
    <polygon style="fill: none; fill-opacity:0; stroke-width: 2; stroke: #000000" points="447.6,500 463.6,495 447.6,490 "/>
    <text font-size="12.7998" style="fill: #000000;text-anchor:middle;font-family:sans-serif;font-style:normal;font-weight:normal" x="358" y="490.972">GetGrades(studentID)</text>
  </g>
  <g>
    <line style="fill: none; fill-opacity:0; stroke-width: 2; stroke: #000000" x1="871.2" y1="510" x2="478.6" y2="510"/>
    <polygon style="fill: #000000" points="871.2,515 887.2,510 871.2,505 "/>
    <polygon style="fill: none; fill-opacity:0; stroke-width: 2; stroke: #000000" points="871.2,515 887.2,510 871.2,505 "/>
    <text font-size="12.7998" style="fill: #000000;text-anchor:middle;font-family:sans-serif;font-style:normal;font-weight:normal" x="675.95" y="504">GetGrades(studentID)</text>
  </g>
  <g>
    <line style="fill: none; fill-opacity:0; stroke-width: 2; stroke-dasharray: 8; stroke: #000000" x1="287.15" y1="560" x2="464.6" y2="560"/>
    <polygon style="fill: #000000" points="287.15,555 271.15,560 287.15,565 "/>
    <polygon style="fill: none; fill-opacity:0; stroke-width: 2; stroke: #000000" points="287.15,555 271.15,560 287.15,565 "/>
    <text font-size="12.7998" style="fill: #000000;text-anchor:middle;font-family:sans-serif;font-style:normal;font-weight:normal" x="379" y="554.972">grades</text>
  </g>
  <g>
    <line style="fill: none; fill-opacity:0; stroke-width: 2; stroke-dasharray: 8; stroke: #000000" x1="495.6" y1="540" x2="888.2" y2="540"/>
    <polygon style="fill: #000000" points="495.6,535 479.6,540 495.6,545 "/>
    <polygon style="fill: none; fill-opacity:0; stroke-width: 2; stroke: #000000" points="495.6,535 479.6,540 495.6,545 "/>
    <text font-size="12.7998" style="fill: #000000;text-anchor:middle;font-family:sans-serif;font-style:normal;font-weight:normal" x="677.95" y="533.5">grades</text>
  </g>
  <g>
    <line style="fill: none; fill-opacity:0; stroke-width: 2; stroke: #000000" x1="256.15" y1="575" x2="224" y2="575"/>
    <line style="fill: none; fill-opacity:0; stroke-width: 2; stroke: #000000" x1="224" y1="575" x2="224" y2="614"/>
    <line style="fill: none; fill-opacity:0; stroke-width: 2; stroke: #000000" x1="239.15" y1="614" x2="224" y2="614"/>
    <polygon style="fill: #000000" points="239.15,619 255.15,614 239.15,609 "/>
    <polygon style="fill: none; fill-opacity:0; stroke-width: 2; stroke: #000000" points="239.15,619 255.15,614 239.15,609 "/>
    <text font-size="12.7998" style="fill: #000000;text-anchor:middle;font-family:sans-serif;font-style:normal;font-weight:normal" x="169" y="570">DisplayGrades(name, grades)</text>
  </g>
  <g>
    <line style="fill: none; fill-opacity:0; stroke-width: 1; stroke-dasharray: 8; stroke: #000000" x1="471.6" y1="570" x2="471.6" y2="881.5"/>
    <line style="fill: none; fill-opacity:0; stroke-width: 1; stroke-dasharray: 8; stroke: #000000" x1="471.6" y1="921.5" x2="471.6" y2="931.5"/>
    <rect style="fill: #ffffff" x="464.6" y="881.5" width="14" height="40"/>
    <rect style="fill: none; fill-opacity:0; stroke-width: 2; stroke: #000000" x="464.6" y="881.5" width="14" height="40"/>
  </g>
  <g>
    <line style="fill: none; fill-opacity:0; stroke-width: 2; stroke: #000000" x1="447.6" y1="365" x2="270.15" y2="365"/>
    <polygon style="fill: #000000" points="447.6,370 463.6,365 447.6,360 "/>
    <polygon style="fill: none; fill-opacity:0; stroke-width: 2; stroke: #000000" points="447.6,370 463.6,365 447.6,360 "/>
    <text font-size="12.7998" style="fill: #000000;text-anchor:middle;font-family:sans-serif;font-style:normal;font-weight:normal" x="363" y="359">GetSchedule(studentID, term)</text>
  </g>
  <g>
    <line style="fill: none; fill-opacity:0; stroke-width: 2; stroke: #000000" x1="871.2" y1="385" x2="478.6" y2="385"/>
    <polygon style="fill: #000000" points="871.2,390 887.2,385 871.2,380 "/>
    <polygon style="fill: none; fill-opacity:0; stroke-width: 2; stroke: #000000" points="871.2,390 887.2,385 871.2,380 "/>
    <text font-size="12.7998" style="fill: #000000;text-anchor:middle;font-family:sans-serif;font-style:normal;font-weight:normal" x="588" y="379">GetSchedule(studentID, term)</text>
  </g>
  <g>
    <line style="fill: none; fill-opacity:0; stroke-width: 2; stroke-dasharray: 8; stroke: #000000" x1="495.6" y1="410" x2="888.2" y2="410"/>
    <polygon style="fill: #000000" points="495.6,405 479.6,410 495.6,415 "/>
    <polygon style="fill: none; fill-opacity:0; stroke-width: 2; stroke: #000000" points="495.6,405 479.6,410 495.6,415 "/>
    <text font-size="12.7998" style="fill: #000000;text-anchor:middle;font-family:sans-serif;font-style:normal;font-weight:normal" x="780.3" y="406">schedule</text>
  </g>
  <g>
    <line style="fill: none; fill-opacity:0; stroke-width: 2; stroke-dasharray: 8; stroke: #000000" x1="287.15" y1="430" x2="464.6" y2="430"/>
    <polygon style="fill: #000000" points="287.15,425 271.15,430 287.15,435 "/>
    <polygon style="fill: none; fill-opacity:0; stroke-width: 2; stroke: #000000" points="287.15,425 271.15,430 287.15,435 "/>
    <text font-size="12.7998" style="fill: #000000;text-anchor:middle;font-family:sans-serif;font-style:normal;font-weight:normal" x="364" y="426">schedule</text>
  </g>
  <g>
    <line style="fill: none; fill-opacity:0; stroke-width: 2; stroke: #000000" x1="256.15" y1="445" x2="224" y2="445"/>
    <line style="fill: none; fill-opacity:0; stroke-width: 2; stroke: #000000" x1="224" y1="445" x2="224" y2="481"/>
    <line style="fill: none; fill-opacity:0; stroke-width: 2; stroke: #000000" x1="239.15" y1="481" x2="224" y2="481"/>
    <polygon style="fill: #000000" points="239.15,486 255.15,481 239.15,476 "/>
    <polygon style="fill: none; fill-opacity:0; stroke-width: 2; stroke: #000000" points="239.15,486 255.15,481 239.15,476 "/>
    <text font-size="12.7998" style="fill: #000000;text-anchor:middle;font-family:sans-serif;font-style:normal;font-weight:normal" x="160" y="439">DisplaySchedule(name, schedule)</text>
  </g>
  <g>
    <line style="fill: none; fill-opacity:0; stroke-width: 2; stroke: #000000" x1="664.3" y1="627.314" x2="270.15" y2="628"/>
    <polygon style="fill: #000000" points="664.309,632.314 680.3,627.286 664.291,622.314 "/>
    <polygon style="fill: none; fill-opacity:0; stroke-width: 2; stroke: #000000" points="664.309,632.314 680.3,627.286 664.291,622.314 "/>
    <text font-size="12.7998" style="fill: #000000;text-anchor:middle;font-family:sans-serif;font-style:normal;font-weight:normal" x="370" y="620.142">GetCourses(term)</text>
  </g>
  <g>
    <line style="fill: none; fill-opacity:0; stroke-width: 2; stroke: #000000" x1="871.201" y1="640.201" x2="695.3" y2="642.284"/>
    <polygon style="fill: #000000" points="871.26,645.201 887.2,640.012 871.142,635.202 "/>
    <polygon style="fill: none; fill-opacity:0; stroke-width: 2; stroke: #000000" points="871.26,645.201 887.2,640.012 871.142,635.202 "/>
    <text font-size="12.7998" style="fill: #000000;text-anchor:middle;font-family:sans-serif;font-style:normal;font-weight:normal" x="790.45" y="634.142">GetCourses(term)</text>
  </g>
  <g>
    <line style="fill: none; fill-opacity:0; stroke-width: 2; stroke-dasharray: 8; stroke: #000000" x1="712.298" y1="662.523" x2="888.2" y2="665"/>
    <polygon style="fill: #000000" points="712.369,657.524 696.3,662.298 712.228,667.523 "/>
    <polygon style="fill: none; fill-opacity:0; stroke-width: 2; stroke: #000000" points="712.369,657.524 696.3,662.298 712.228,667.523 "/>
    <text font-size="12.7998" style="fill: #000000;text-anchor:middle;font-family:sans-serif;font-style:normal;font-weight:normal" x="787.3" y="659.142">courses</text>
  </g>
  <g>
    <line style="fill: none; fill-opacity:0; stroke-width: 2; stroke-dasharray: 8; stroke: #000000" x1="287.15" y1="680.094" x2="681.3" y2="682.284"/>
    <polygon style="fill: #000000" points="287.178,675.095 271.15,680.006 287.122,685.094 "/>
    <polygon style="fill: none; fill-opacity:0; stroke-width: 2; stroke: #000000" points="287.178,675.095 271.15,680.006 287.122,685.094 "/>
    <text font-size="12.7998" style="fill: #000000;text-anchor:middle;font-family:sans-serif;font-style:normal;font-weight:normal" x="576" y="677.142">courses</text>
  </g>
  <g>
    <line style="fill: none; fill-opacity:0; stroke-width: 2; stroke: #000000" x1="256.15" y1="700" x2="223" y2="700"/>
    <line style="fill: none; fill-opacity:0; stroke-width: 2; stroke: #000000" x1="223" y1="700" x2="223" y2="742"/>
    <line style="fill: none; fill-opacity:0; stroke-width: 2; stroke: #000000" x1="239.15" y1="742" x2="223" y2="742"/>
    <polygon style="fill: #000000" points="239.15,747 255.15,742 239.15,737 "/>
    <polygon style="fill: none; fill-opacity:0; stroke-width: 2; stroke: #000000" points="239.15,747 255.15,742 239.15,737 "/>
    <text font-size="12.7998" style="fill: #000000;text-anchor:middle;font-family:sans-serif;font-style:normal;font-weight:normal" x="167.5" y="695.5">DisplayCourses(term, courses)</text>
  </g>
  <g>
    <line style="fill: none; fill-opacity:0; stroke-width: 2; stroke: #000000" x1="664.3" y1="762.19" x2="270.15" y2="760"/>
    <polygon style="fill: #000000" points="664.272,767.189 680.3,762.278 664.328,757.19 "/>
    <polygon style="fill: none; fill-opacity:0; stroke-width: 2; stroke: #000000" points="664.272,767.189 680.3,762.278 664.328,757.19 "/>
    <text font-size="12.7998" style="fill: #000000;text-anchor:middle;font-family:sans-serif;font-style:normal;font-weight:normal" x="370" y="753.642">GetSections(courseID, term)</text>
  </g>
  <g>
    <line style="fill: none; fill-opacity:0; stroke-width: 2; stroke-dasharray: 8; stroke: #000000" x1="712.298" y1="802.523" x2="888.2" y2="805"/>
    <polygon style="fill: #000000" points="712.369,797.524 696.3,802.298 712.228,807.523 "/>
    <polygon style="fill: none; fill-opacity:0; stroke-width: 2; stroke: #000000" points="712.369,797.524 696.3,802.298 712.228,807.523 "/>
    <text font-size="12.7998" style="fill: #000000;text-anchor:middle;font-family:sans-serif;font-style:normal;font-weight:normal" x="787.3" y="799.142">sections</text>
  </g>
  <g>
    <line style="fill: none; fill-opacity:0; stroke-width: 2; stroke-dasharray: 8; stroke: #000000" x1="287.15" y1="820.094" x2="681.3" y2="822.284"/>
    <polygon style="fill: #000000" points="287.178,815.095 271.15,820.006 287.122,825.094 "/>
    <polygon style="fill: none; fill-opacity:0; stroke-width: 2; stroke: #000000" points="287.178,815.095 271.15,820.006 287.122,825.094 "/>
    <text font-size="12.7998" style="fill: #000000;text-anchor:middle;font-family:sans-serif;font-style:normal;font-weight:normal" x="584" y="815.642">sections</text>
  </g>
  <g>
    <line style="fill: none; fill-opacity:0; stroke-width: 2; stroke: #000000" x1="256.15" y1="835" x2="224" y2="835"/>
    <line style="fill: none; fill-opacity:0; stroke-width: 2; stroke: #000000" x1="224" y1="835" x2="224" y2="862"/>
    <line style="fill: none; fill-opacity:0; stroke-width: 2; stroke: #000000" x1="239.15" y1="862" x2="224" y2="862"/>
    <polygon style="fill: #000000" points="239.15,867 255.15,862 239.15,857 "/>
    <polygon style="fill: none; fill-opacity:0; stroke-width: 2; stroke: #000000" points="239.15,867 255.15,862 239.15,857 "/>
    <text font-size="12.7998" style="fill: #000000;text-anchor:middle;font-family:sans-serif;font-style:normal;font-weight:normal" x="166" y="826.206">DisplaySections(term, sections)</text>
  </g>
  <g>
    <line style="fill: none; fill-opacity:0; stroke-width: 2; stroke: #000000" x1="447.601" y1="881.369" x2="270.15" y2="880"/>
    <polygon style="fill: #000000" points="447.562,886.369 463.6,881.492 447.639,876.369 "/>
    <polygon style="fill: none; fill-opacity:0; stroke-width: 2; stroke: #000000" points="447.562,886.369 463.6,881.492 447.639,876.369 "/>
    <text font-size="12.7998" style="fill: #000000;text-anchor:middle;font-family:sans-serif;font-style:normal;font-weight:normal" x="407" y="873.25">AddSectionViaOverride(scheduleID, sectionID)</text>
  </g>
  <g>
    <line style="fill: none; fill-opacity:0; stroke-width: 2; stroke: #000000" x1="871.2" y1="905.062" x2="478.6" y2="906.5"/>
    <polygon style="fill: #000000" points="871.218,910.062 887.2,905.004 871.182,900.062 "/>
    <polygon style="fill: none; fill-opacity:0; stroke-width: 2; stroke: #000000" points="871.218,910.062 887.2,905.004 871.182,900.062 "/>
    <text font-size="12.7998" style="fill: #000000;text-anchor:middle;font-family:sans-serif;font-style:normal;font-weight:normal" x="688.3" y="900.75">AddSectionViaOverride(scheduleID, sectionID)</text>
  </g>
  <g>
    <line style="fill: none; fill-opacity:0; stroke-width: 2; stroke: #000000" x1="871.202" y1="779.761" x2="695.3" y2="777.284"/>
    <polygon style="fill: #000000" points="871.131,784.76 887.2,779.986 871.272,774.761 "/>
    <polygon style="fill: none; fill-opacity:0; stroke-width: 2; stroke: #000000" points="871.131,784.76 887.2,779.986 871.272,774.761 "/>
    <text font-size="12.7998" style="fill: #000000;text-anchor:middle;font-family:sans-serif;font-style:normal;font-weight:normal" x="788" y="773.226">GetSections(courseID, term)</text>
  </g>
</svg>
