<?xml version="1.0" encoding="UTF-8" standalone="no"?>
<!DOCTYPE svg PUBLIC "-//W3C//DTD SVG 1.0//EN" "http://www.w3.org/TR/2001/PR-SVG-20010719/DTD/svg10.dtd">
<svg width="32cm" height="18cm" viewBox="64 39 628 354" xmlns="http://www.w3.org/2000/svg" xmlns:xlink="http://www.w3.org/1999/xlink">
  <text font-size="14.6756" style="fill: #000000;text-anchor:middle;font-family:sans-serif;font-style:normal;font-weight:700" x="170" y="56">
    <tspan x="170" y="56">Unenroll from</tspan>
    <tspan x="170" y="74.3444">a Course</tspan>
  </text>
  <ellipse style="fill: #000000" cx="110" cy="107" rx="10" ry="10"/>
  <g>
    <rect style="fill: #ffffff" x="240" y="40" width="46.3" height="36"/>
    <rect style="fill: none; fill-opacity:0; stroke-width: 2; stroke: #000000" x="240" y="40" width="46.3" height="36"/>
    <text font-size="12.8" style="fill: #000000;text-anchor:middle;font-family:sans-serif;font-style:normal;font-weight:normal" x="263.15" y="62.8">
      <tspan x="263.15" y="62.8">:GUI</tspan>
    </text>
    <line style="fill: none; fill-opacity:0; stroke-width: 1; stroke: #000000" x1="250" y1="65.45" x2="276.3" y2="65.45"/>
  </g>
  <g>
    <line style="fill: none; fill-opacity:0; stroke-width: 1; stroke-dasharray: 8; stroke: #000000" x1="263.15" y1="76" x2="263.15" y2="107"/>
    <line style="fill: none; fill-opacity:0; stroke-width: 1; stroke-dasharray: 8; stroke: #000000" x1="263.15" y1="287" x2="263.15" y2="361"/>
    <rect style="fill: #ffffff" x="256.15" y="107" width="14" height="180"/>
    <rect style="fill: none; fill-opacity:0; stroke-width: 2; stroke: #000000" x="256.15" y="107" width="14" height="180"/>
  </g>
  <g>
    <line style="fill: none; fill-opacity:0; stroke-width: 2; stroke: #000000" x1="239.15" y1="107" x2="120" y2="107"/>
    <polygon style="fill: #000000" points="239.15,112 255.15,107 239.15,102 "/>
    <polygon style="fill: none; fill-opacity:0; stroke-width: 2; stroke: #000000" points="239.15,112 255.15,107 239.15,102 "/>
  </g>
  <g>
    <rect style="fill: #ffffff" x="379" y="40" width="98.85" height="36"/>
    <rect style="fill: none; fill-opacity:0; stroke-width: 2; stroke: #000000" x="379" y="40" width="98.85" height="36"/>
    <text font-size="12.8" style="fill: #000000;text-anchor:middle;font-family:sans-serif;font-style:normal;font-weight:normal" x="428.425" y="62.8">
      <tspan x="428.425" y="62.8">:UserManager</tspan>
    </text>
    <line style="fill: none; fill-opacity:0; stroke-width: 1; stroke: #000000" x1="389" y1="65.45" x2="467.85" y2="65.45"/>
  </g>
  <g>
    <line style="fill: none; fill-opacity:0; stroke-width: 1; stroke-dasharray: 8; stroke: #000000" x1="428.426" y1="76" x2="428.426" y2="127"/>
    <line style="fill: none; fill-opacity:0; stroke-width: 1; stroke-dasharray: 8; stroke: #000000" x1="428.426" y1="297" x2="428.426" y2="351"/>
    <rect style="fill: #ffffff" x="421.426" y="127" width="14" height="170"/>
    <rect style="fill: none; fill-opacity:0; stroke-width: 2; stroke: #000000" x="421.426" y="127" width="14" height="170"/>
  </g>
  <g>
    <line style="fill: none; fill-opacity:0; stroke-width: 2; stroke: #000000" x1="404.426" y1="127" x2="270.15" y2="127"/>
    <polygon style="fill: #000000" points="404.426,132 420.426,127 404.426,122 "/>
    <polygon style="fill: none; fill-opacity:0; stroke-width: 2; stroke: #000000" points="404.426,132 420.426,127 404.426,122 "/>
    <text font-size="12.7998" style="fill: #000000;text-anchor:middle;font-family:sans-serif;font-style:normal;font-weight:normal" x="363.412" y="120">GetSchedule(studentID, term)</text>
  </g>
  <g>
    <line style="fill: none; fill-opacity:0; stroke-width: 2; stroke: #000000" x1="604.026" y1="142.908" x2="435.426" y2="142"/>
    <polygon style="fill: #000000" points="603.999,147.908 620.026,142.995 604.053,137.908 "/>
    <polygon style="fill: none; fill-opacity:0; stroke-width: 2; stroke: #000000" points="603.999,147.908 620.026,142.995 604.053,137.908 "/>
    <text font-size="12.7998" style="fill: #000000;text-anchor:middle;font-family:sans-serif;font-style:normal;font-weight:normal" x="533.126" y="134">GetSchedule(studentID, term)</text>
  </g>
  <g>
    <line style="fill: none; fill-opacity:0; stroke-width: 2; stroke-dasharray: 8; stroke: #000000" x1="452.426" y1="177.092" x2="621.026" y2="178"/>
    <polygon style="fill: #000000" points="452.453,172.092 436.426,177.005 452.399,182.092 "/>
    <polygon style="fill: none; fill-opacity:0; stroke-width: 2; stroke: #000000" points="452.453,172.092 436.426,177.005 452.399,182.092 "/>
    <text font-size="12.7998" style="fill: #000000;text-anchor:middle;font-family:sans-serif;font-style:normal;font-weight:normal" x="524.126" y="174">schedule</text>
  </g>
  <g>
    <line style="fill: none; fill-opacity:0; stroke-width: 2; stroke-dasharray: 8; stroke: #000000" x1="287.15" y1="197" x2="421.426" y2="197"/>
    <polygon style="fill: #000000" points="287.15,192 271.15,197 287.15,202 "/>
    <polygon style="fill: none; fill-opacity:0; stroke-width: 2; stroke: #000000" points="287.15,192 271.15,197 287.15,202 "/>
    <text font-size="12.7998" style="fill: #000000;text-anchor:middle;font-family:sans-serif;font-style:normal;font-weight:normal" x="342.412" y="193">schedule</text>
  </g>
  <g>
    <rect style="fill: #ffffff" x="565" y="40" width="126.05" height="36"/>
    <rect style="fill: none; fill-opacity:0; stroke-width: 2; stroke: #000000" x="565" y="40" width="126.05" height="36"/>
    <text font-size="12.8" style="fill: #000000;text-anchor:middle;font-family:sans-serif;font-style:normal;font-weight:normal" x="628.025" y="62.8">
      <tspan x="628.025" y="62.8">:DatabaseManager</tspan>
    </text>
    <line style="fill: none; fill-opacity:0; stroke-width: 1; stroke: #000000" x1="575" y1="65.45" x2="681.05" y2="65.45"/>
  </g>
  <g>
    <line style="fill: none; fill-opacity:0; stroke-width: 1; stroke-dasharray: 8; stroke: #000000" x1="628.026" y1="76" x2="628.026" y2="143"/>
    <line style="fill: none; fill-opacity:0; stroke-width: 1; stroke-dasharray: 8; stroke: #000000" x1="628.026" y1="313" x2="628.026" y2="392"/>
    <rect style="fill: #ffffff" x="621.026" y="143" width="14" height="170"/>
    <rect style="fill: none; fill-opacity:0; stroke-width: 2; stroke: #000000" x="621.026" y="143" width="14" height="170"/>
  </g>
  <g>
    <line style="fill: none; fill-opacity:0; stroke-width: 2; stroke: #000000" x1="256.15" y1="217" x2="227" y2="217"/>
    <line style="fill: none; fill-opacity:0; stroke-width: 2; stroke: #000000" x1="227" y1="217" x2="227" y2="251"/>
    <line style="fill: none; fill-opacity:0; stroke-width: 2; stroke: #000000" x1="239.15" y1="251" x2="227" y2="251"/>
    <polygon style="fill: #000000" points="239.15,256 255.15,251 239.15,246 "/>
    <polygon style="fill: none; fill-opacity:0; stroke-width: 2; stroke: #000000" points="239.15,256 255.15,251 239.15,246 "/>
    <text font-size="12.7998" style="fill: #000000;text-anchor:middle;font-family:sans-serif;font-style:normal;font-weight:normal" x="159" y="209">DisplaySchedule(name, schedule)</text>
  </g>
  <g>
    <line style="fill: none; fill-opacity:0; stroke-width: 2; stroke: #000000" x1="404.426" y1="277" x2="270.15" y2="277"/>
    <polygon style="fill: #000000" points="404.426,282 420.426,277 404.426,272 "/>
    <polygon style="fill: none; fill-opacity:0; stroke-width: 2; stroke: #000000" points="404.426,282 420.426,277 404.426,272 "/>
    <text font-size="12.7998" style="fill: #000000;text-anchor:middle;font-family:sans-serif;font-style:normal;font-weight:normal" x="346.414" y="253">DropSection(studentID, </text>
  </g>
  <text font-size="11.8533" style="fill: #000000;text-anchor:start;font-family:sans-serif;font-style:normal;font-weight:normal" x="281" y="267">
    <tspan x="281" y="267">scheduleID, sectionID)</tspan>
  </text>
  <g>
    <line style="fill: none; fill-opacity:0; stroke-width: 2; stroke: #000000" x1="604.026" y1="297.912" x2="428.6" y2="297"/>
    <polygon style="fill: #000000" points="604,302.912 620.026,297.995 604.052,292.912 "/>
    <polygon style="fill: none; fill-opacity:0; stroke-width: 2; stroke: #000000" points="604,302.912 620.026,297.995 604.052,292.912 "/>
    <text font-size="12.7998" style="fill: #000000;text-anchor:middle;font-family:sans-serif;font-style:normal;font-weight:normal" x="525.436" y="273.5">DropSection(studentID, </text>
  </g>
  <text font-size="11.8533" style="fill: #000000;text-anchor:start;font-family:sans-serif;font-style:normal;font-weight:normal" x="457" y="291">
    <tspan x="457" y="291">scheduleID, sectionID)</tspan>
  </text>
  <text font-size="12.8" style="fill: #000000;text-anchor:start;font-family:sans-serif;font-style:normal;font-weight:normal" x="428.426" y="58">
    <tspan x="428.426" y="58"></tspan>
  </text>
</svg>
