<?xml version="1.0" encoding="UTF-8" standalone="no"?>
<!DOCTYPE svg PUBLIC "-//W3C//DTD SVG 1.0//EN" "http://www.w3.org/TR/2001/PR-SVG-20010719/DTD/svg10.dtd">
<svg width="36cm" height="14cm" viewBox="123 -81 712 263" xmlns="http://www.w3.org/2000/svg" xmlns:xlink="http://www.w3.org/1999/xlink">
  <g>
    <line style="fill: none; fill-opacity:0; stroke-width: 2; stroke: #000000" x1="517.6" y1="7.00851" x2="330.15" y2="7.92536"/>
    <polygon style="fill: #000000" points="517.625,12.0084 533.6,6.93025 517.576,2.00857 "/>
    <polygon style="fill: none; fill-opacity:0; stroke-width: 2; stroke: #000000" points="517.625,12.0084 533.6,6.93025 517.576,2.00857 "/>
    <text font-size="12.7998" style="fill: #000000;text-anchor:middle;font-family:sans-serif;font-style:normal;font-weight:normal" x="428" y="1.42535">GetSchedule(studentID, term)</text>
  </g>
  <g>
    <line style="fill: none; fill-opacity:0; stroke-width: 2; stroke: #000000" x1="734.2" y1="41.0093" x2="548.6" y2="41.9254"/>
    <polygon style="fill: #000000" points="734.225,46.0092 750.2,40.9303 734.176,36.0094 "/>
    <polygon style="fill: none; fill-opacity:0; stroke-width: 2; stroke: #000000" points="734.225,46.0092 750.2,40.9303 734.176,36.0094 "/>
    <text font-size="12.7998" style="fill: #000000;text-anchor:middle;font-family:sans-serif;font-style:normal;font-weight:normal" x="644" y="36">GetSchedule(studentID, term)</text>
  </g>
  <g>
    <line style="fill: none; fill-opacity:0; stroke-width: 2; stroke-dasharray: 8; stroke: #000000" x1="565.6" y1="71.8415" x2="751.2" y2="70.9254"/>
    <polygon style="fill: #000000" points="565.575,66.8416 549.6,71.9205 565.624,76.8414 "/>
    <polygon style="fill: none; fill-opacity:0; stroke-width: 2; stroke: #000000" points="565.575,66.8416 549.6,71.9205 565.624,76.8414 "/>
    <text font-size="12.7998" style="fill: #000000;text-anchor:middle;font-family:sans-serif;font-style:normal;font-weight:normal" x="644.974" y="69.188">schedule</text>
  </g>
  <g>
    <line style="fill: none; fill-opacity:0; stroke-width: 2; stroke-dasharray: 8; stroke: #000000" x1="347.15" y1="97.8423" x2="534.6" y2="96.9254"/>
    <polygon style="fill: #000000" points="347.125,92.8423 331.15,97.9205 347.174,102.842 "/>
    <polygon style="fill: none; fill-opacity:0; stroke-width: 2; stroke: #000000" points="347.125,92.8423 331.15,97.9205 347.174,102.842 "/>
    <text font-size="12.7998" style="fill: #000000;text-anchor:middle;font-family:sans-serif;font-style:normal;font-weight:normal" x="429" y="93.4254">schedule</text>
  </g>
  <g>
    <line style="fill: none; fill-opacity:0; stroke-width: 2; stroke: #000000" x1="316.15" y1="117.925" x2="284" y2="117.925"/>
    <line style="fill: none; fill-opacity:0; stroke-width: 2; stroke: #000000" x1="284" y1="117.925" x2="284" y2="151.925"/>
    <line style="fill: none; fill-opacity:0; stroke-width: 2; stroke: #000000" x1="299.15" y1="151.925" x2="284" y2="151.925"/>
    <polygon style="fill: #000000" points="299.15,156.925 315.15,151.925 299.15,146.925 "/>
    <polygon style="fill: none; fill-opacity:0; stroke-width: 2; stroke: #000000" points="299.15,156.925 315.15,151.925 299.15,146.925 "/>
    <text font-size="12.7998" style="fill: #000000;text-anchor:middle;font-family:sans-serif;font-style:normal;font-weight:normal" x="218" y="109.425">DisplaySchedule(name, schedule)</text>
  </g>
  <g>
    <rect style="fill: #ffffff" x="300" y="-80" width="46.3" height="36"/>
    <rect style="fill: none; fill-opacity:0; stroke-width: 2; stroke: #000000" x="300" y="-80" width="46.3" height="36"/>
    <text font-size="12.8" style="fill: #000000;text-anchor:middle;font-family:sans-serif;font-style:normal;font-weight:normal" x="323.15" y="-57.2">
      <tspan x="323.15" y="-57.2">:GUI</tspan>
    </text>
    <line style="fill: none; fill-opacity:0; stroke-width: 1; stroke: #000000" x1="310" y1="-54.55" x2="336.3" y2="-54.55"/>
  </g>
  <g>
    <rect style="fill: #ffffff" x="480" y="-80" width="123.2" height="36"/>
    <rect style="fill: none; fill-opacity:0; stroke-width: 2; stroke: #000000" x="480" y="-80" width="123.2" height="36"/>
    <text font-size="12.8" style="fill: #000000;text-anchor:middle;font-family:sans-serif;font-style:normal;font-weight:normal" x="541.6" y="-57.2">
      <tspan x="541.6" y="-57.2">:UserManagement</tspan>
    </text>
    <line style="fill: none; fill-opacity:0; stroke-width: 1; stroke: #000000" x1="490" y1="-54.55" x2="593.2" y2="-54.55"/>
  </g>
  <g>
    <rect style="fill: #ffffff" x="683" y="-80" width="150.4" height="36"/>
    <rect style="fill: none; fill-opacity:0; stroke-width: 2; stroke: #000000" x="683" y="-80" width="150.4" height="36"/>
    <text font-size="12.8" style="fill: #000000;text-anchor:middle;font-family:sans-serif;font-style:normal;font-weight:normal" x="758.2" y="-57.2">
      <tspan x="758.2" y="-57.2">:DatabaseManagement</tspan>
    </text>
    <line style="fill: none; fill-opacity:0; stroke-width: 1; stroke: #000000" x1="693" y1="-54.55" x2="823.4" y2="-54.55"/>
  </g>
  <g>
    <line style="fill: none; fill-opacity:0; stroke-width: 1; stroke-dasharray: 8; stroke: #000000" x1="323.15" y1="-44" x2="323.15" y2="-17.0746"/>
    <line style="fill: none; fill-opacity:0; stroke-width: 1; stroke-dasharray: 8; stroke: #000000" x1="323.15" y1="152.925" x2="323.15" y2="180.925"/>
    <rect style="fill: #ffffff" x="316.15" y="-17.0746" width="14" height="170"/>
    <rect style="fill: none; fill-opacity:0; stroke-width: 2; stroke: #000000" x="316.15" y="-17.0746" width="14" height="170"/>
  </g>
  <ellipse style="fill: #000000" cx="149.5" cy="-16.6746" rx="10" ry="10"/>
  <g>
    <line style="fill: none; fill-opacity:0; stroke-width: 2; stroke: #000000" x1="299.15" y1="-17.0312" x2="159.5" y2="-16.6746"/>
    <polygon style="fill: #000000" points="299.163,-12.0312 315.15,-17.0721 299.137,-22.0312 "/>
    <polygon style="fill: none; fill-opacity:0; stroke-width: 2; stroke: #000000" points="299.163,-12.0312 315.15,-17.0721 299.137,-22.0312 "/>
  </g>
  <g>
    <line style="fill: none; fill-opacity:0; stroke-width: 1; stroke-dasharray: 8; stroke: #000000" x1="541.6" y1="-44" x2="541.6" y2="6.92535"/>
    <line style="fill: none; fill-opacity:0; stroke-width: 1; stroke-dasharray: 8; stroke: #000000" x1="541.6" y1="96.9254" x2="541.6" y2="121.925"/>
    <rect style="fill: #ffffff" x="534.6" y="6.92535" width="14" height="90"/>
    <rect style="fill: none; fill-opacity:0; stroke-width: 2; stroke: #000000" x="534.6" y="6.92535" width="14" height="90"/>
  </g>
  <g>
    <line style="fill: none; fill-opacity:0; stroke-width: 1; stroke-dasharray: 8; stroke: #000000" x1="758.2" y1="-44" x2="758.2" y2="40.9254"/>
    <line style="fill: none; fill-opacity:0; stroke-width: 1; stroke-dasharray: 8; stroke: #000000" x1="758.2" y1="70.9254" x2="758.2" y2="103.925"/>
    <rect style="fill: #ffffff" x="751.2" y="40.9254" width="14" height="30"/>
    <rect style="fill: none; fill-opacity:0; stroke-width: 2; stroke: #000000" x="751.2" y="40.9254" width="14" height="30"/>
  </g>
  <text font-size="14.6756" style="fill: #000000;text-anchor:middle;font-family:sans-serif;font-style:normal;font-weight:700" x="224" y="-58.0746">
    <tspan x="224" y="-58.0746">View Schedule</tspan>
  </text>
</svg>
