<?xml version="1.0" encoding="UTF-8" standalone="no"?>
<!DOCTYPE svg PUBLIC "-//W3C//DTD SVG 1.0//EN" "http://www.w3.org/TR/2001/PR-SVG-20010719/DTD/svg10.dtd">
<svg width="36cm" height="25cm" viewBox="139 19 702 482" xmlns="http://www.w3.org/2000/svg" xmlns:xlink="http://www.w3.org/1999/xlink">
  <g>
    <rect style="fill: #ffffff" x="140" y="20" width="700" height="480"/>
    <rect style="fill: none; fill-opacity:0; stroke-width: 2; stroke: #000000" x="140" y="20" width="700" height="480"/>
  </g>
  <g>
    <rect style="fill: #ffffff" x="140" y="20" width="700" height="60"/>
    <rect style="fill: none; fill-opacity:0; stroke-width: 2; stroke: #000000" x="140" y="20" width="700" height="60"/>
  </g>
  <text font-size="12.8" style="fill: #000000;text-anchor:start;font-family:sans-serif;font-style:normal;font-weight:normal" x="490" y="50">
    <tspan x="490" y="50"></tspan>
  </text>
  <text font-size="16.9333" style="fill: #000000;text-anchor:middle;font-family:sans-serif;font-style:normal;font-weight:normal" x="490" y="57.725">
    <tspan x="490" y="57.725">COURSELY - Course Management</tspan>
  </text>
  <g>
    <rect style="fill: #ffffff" x="140" y="80" width="700" height="40"/>
    <rect style="fill: none; fill-opacity:0; stroke-width: 2; stroke: #000000" x="140" y="80" width="700" height="40"/>
  </g>
  <text font-size="13.5467" style="fill: #000000;text-anchor:middle;font-family:sans-serif;font-style:normal;font-weight:normal" x="200" y="106.375">
    <tspan x="200" y="106.375"></tspan>
  </text>
  <g>
    <rect style="fill: #ffffff" x="800" y="120" width="40" height="380"/>
    <rect style="fill: none; fill-opacity:0; stroke-width: 2; stroke: #000000" x="800" y="120" width="40" height="380"/>
  </g>
  <text font-size="12.8" style="fill: #000000;text-anchor:start;font-family:sans-serif;font-style:normal;font-weight:normal" x="780" y="100">
    <tspan x="780" y="100"></tspan>
  </text>
  <g>
    <rect style="fill: #ffffff" x="140" y="120" width="660" height="40"/>
    <rect style="fill: none; fill-opacity:0; stroke-width: 2; stroke: #000000" x="140" y="120" width="660" height="40"/>
  </g>
  <text font-size="14.6756" style="fill: #000000;text-anchor:middle;font-family:sans-serif;font-style:normal;font-weight:normal" x="490" y="105.825">
    <tspan x="490" y="105.825">Add a Section</tspan>
  </text>
  <g>
    <rect style="fill: #ffffff" x="140" y="120" width="120" height="40"/>
    <rect style="fill: none; fill-opacity:0; stroke-width: 2; stroke: #000000" x="140" y="120" width="120" height="40"/>
  </g>
  <text font-size="12.8" style="fill: #000000;text-anchor:middle;font-family:sans-serif;font-style:normal;font-weight:normal" x="200" y="145.075">
    <tspan x="200" y="145.075">Home</tspan>
  </text>
  <text font-size="12.8" style="fill: #000000;text-anchor:start;font-family:sans-serif;font-style:normal;font-weight:normal" x="200" y="140">
    <tspan x="200" y="140"></tspan>
  </text>
  <g>
    <rect style="fill: #ffffff" x="461" y="120" width="120" height="40"/>
    <rect style="fill: none; fill-opacity:0; stroke-width: 2; stroke: #000000" x="461" y="120" width="120" height="40"/>
  </g>
  <text font-size="12.8" style="fill: #000000;text-anchor:middle;font-family:sans-serif;font-style:normal;font-weight:normal" x="521" y="145.075">
    <tspan x="521" y="145.075">[Department]</tspan>
  </text>
  <g>
    <rect style="fill: #ffffff" x="581" y="120" width="40" height="40"/>
    <rect style="fill: none; fill-opacity:0; stroke-width: 2; stroke: #000000" x="581" y="120" width="40" height="40"/>
  </g>
  <g>
    <polygon style="fill: #ffffff" points="591,120 591,140 581,140 601,160 621,140 611,140 611,120 "/>
    <polygon style="fill: none; fill-opacity:0; stroke-width: 2; stroke: #000000" points="591,120 591,140 581,140 601,160 621,140 611,140 611,120 "/>
    <polygon style="fill: none; fill-opacity:0; stroke-width: 2; stroke: #000000" points="591,120 591,140 581,140 601,160 621,140 611,140 611,120 "/>
  </g>
  <text font-size="12.8" style="fill: #000000;text-anchor:middle;font-family:sans-serif;font-style:normal;font-weight:normal" x="205" y="190.075">
    <tspan x="205" y="190.075">Name:</tspan>
  </text>
  <g>
    <rect style="fill: #ffffff" x="182" y="192" width="160" height="40"/>
    <rect style="fill: none; fill-opacity:0; stroke-width: 2; stroke: #000000" x="182" y="192" width="160" height="40"/>
  </g>
  <text font-size="12.8" style="fill: #000000;text-anchor:middle;font-family:sans-serif;font-style:normal;font-weight:normal" x="262" y="217.075">
    <tspan x="262" y="217.075">[Name]</tspan>
  </text>
  <g>
    <rect style="fill: #ffffff" x="384" y="192" width="160" height="40"/>
    <rect style="fill: none; fill-opacity:0; stroke-width: 2; stroke: #000000" x="384" y="192" width="160" height="40"/>
  </g>
  <text font-size="12.8" style="fill: #000000;text-anchor:middle;font-family:sans-serif;font-style:normal;font-weight:normal" x="412" y="190.075">
    <tspan x="412" y="190.075">Number:</tspan>
  </text>
  <text font-size="12.8" style="fill: #000000;text-anchor:middle;font-family:sans-serif;font-style:normal;font-weight:normal" x="464" y="217.075">
    <tspan x="464" y="217.075">[Number]</tspan>
  </text>
  <g>
    <rect style="fill: #ffffff" x="598" y="430" width="160" height="40"/>
    <rect style="fill: none; fill-opacity:0; stroke-width: 2; stroke: #000000" x="598" y="430" width="160" height="40"/>
  </g>
  <text font-size="12.8" style="fill: #000000;text-anchor:middle;font-family:sans-serif;font-style:normal;font-weight:normal" x="678" y="454.882">
    <tspan x="678" y="454.882">Add Section</tspan>
  </text>
  <g>
    <rect style="fill: #ffffff" x="165.2" y="430.4" width="414.8" height="40"/>
    <rect style="fill: none; fill-opacity:0; stroke-width: 2; stroke: #000000" x="165.2" y="430.4" width="414.8" height="40"/>
  </g>
  <text font-size="12.8" style="fill: #000000;text-anchor:middle;font-family:sans-serif;font-style:normal;font-weight:normal" x="372.6" y="455.475">
    <tspan x="372.6" y="455.475">[Error Messages]</tspan>
  </text>
  <g>
    <rect style="fill: #ffffff" x="279" y="120" width="120" height="40"/>
    <rect style="fill: none; fill-opacity:0; stroke-width: 2; stroke: #000000" x="279" y="120" width="120" height="40"/>
  </g>
  <text font-size="12.8" style="fill: #000000;text-anchor:middle;font-family:sans-serif;font-style:normal;font-weight:normal" x="339" y="145.075">
    <tspan x="339" y="145.075">[School]</tspan>
  </text>
  <g>
    <rect style="fill: #ffffff" x="399" y="120" width="40" height="40"/>
    <rect style="fill: none; fill-opacity:0; stroke-width: 2; stroke: #000000" x="399" y="120" width="40" height="40"/>
  </g>
  <g>
    <polygon style="fill: #ffffff" points="409,120 409,140 399,140 419,160 439,140 429,140 429,120 "/>
    <polygon style="fill: none; fill-opacity:0; stroke-width: 2; stroke: #000000" points="409,120 409,140 399,140 419,160 439,140 429,140 429,120 "/>
    <polygon style="fill: none; fill-opacity:0; stroke-width: 2; stroke: #000000" points="409,120 409,140 399,140 419,160 439,140 429,140 429,120 "/>
  </g>
  <g>
    <rect style="fill: #ffffff" x="640" y="120" width="120" height="40"/>
    <rect style="fill: none; fill-opacity:0; stroke-width: 2; stroke: #000000" x="640" y="120" width="120" height="40"/>
  </g>
  <text font-size="12.8" style="fill: #000000;text-anchor:middle;font-family:sans-serif;font-style:normal;font-weight:normal" x="700" y="145.075">
    <tspan x="700" y="145.075">[Course]</tspan>
  </text>
  <g>
    <rect style="fill: #ffffff" x="760" y="120" width="40" height="40"/>
    <rect style="fill: none; fill-opacity:0; stroke-width: 2; stroke: #000000" x="760" y="120" width="40" height="40"/>
  </g>
  <g>
    <polygon style="fill: #ffffff" points="770,120 770,140 760,140 780,160 800,140 790,140 790,120 "/>
    <polygon style="fill: none; fill-opacity:0; stroke-width: 2; stroke: #000000" points="770,120 770,140 760,140 780,160 800,140 790,140 790,120 "/>
    <polygon style="fill: none; fill-opacity:0; stroke-width: 2; stroke: #000000" points="770,120 770,140 760,140 780,160 800,140 790,140 790,120 "/>
  </g>
  <g>
    <rect style="fill: #ffffff" x="580.2" y="192.125" width="160" height="40"/>
    <rect style="fill: none; fill-opacity:0; stroke-width: 2; stroke: #000000" x="580.2" y="192.125" width="160" height="40"/>
  </g>
  <text font-size="12.8" style="fill: #000000;text-anchor:middle;font-family:sans-serif;font-style:normal;font-weight:normal" x="608.2" y="190.2">
    <tspan x="608.2" y="190.2">Building:</tspan>
  </text>
  <text font-size="12.8" style="fill: #000000;text-anchor:middle;font-family:sans-serif;font-style:normal;font-weight:normal" x="660.2" y="217.199">
    <tspan x="660.2" y="217.199">[Building]</tspan>
  </text>
  <g>
    <rect style="fill: #ffffff" x="700.2" y="192.15" width="40" height="40"/>
    <rect style="fill: none; fill-opacity:0; stroke-width: 2; stroke: #000000" x="700.2" y="192.15" width="40" height="40"/>
  </g>
  <g>
    <polygon style="fill: #ffffff" points="709.614,192.15 709.614,212.15 699.614,212.15 719.614,232.15 739.614,212.15 729.614,212.15 729.614,192.15 "/>
    <polygon style="fill: none; fill-opacity:0; stroke-width: 2; stroke: #000000" points="709.614,192.15 709.614,212.15 699.614,212.15 719.614,232.15 739.614,212.15 729.614,212.15 729.614,192.15 "/>
    <polygon style="fill: none; fill-opacity:0; stroke-width: 2; stroke: #000000" points="709.614,192.15 709.614,212.15 699.614,212.15 719.614,232.15 739.614,212.15 729.614,212.15 729.614,192.15 "/>
  </g>
  <text font-size="12.8" style="fill: #000000;text-anchor:middle;font-family:sans-serif;font-style:normal;font-weight:normal" x="206.2" y="249.199">
    <tspan x="206.2" y="249.199">Room:</tspan>
  </text>
  <g>
    <rect style="fill: #ffffff" x="183.2" y="251.124" width="160" height="40"/>
    <rect style="fill: none; fill-opacity:0; stroke-width: 2; stroke: #000000" x="183.2" y="251.124" width="160" height="40"/>
  </g>
  <text font-size="12.8" style="fill: #000000;text-anchor:middle;font-family:sans-serif;font-style:normal;font-weight:normal" x="263.2" y="276.199">
    <tspan x="263.2" y="276.199">[Room]</tspan>
  </text>
  <text font-size="12.8" style="fill: #000000;text-anchor:middle;font-family:sans-serif;font-style:normal;font-weight:normal" x="431.2" y="251.199">
    <tspan x="431.2" y="251.199">Max Enrollment:</tspan>
  </text>
  <g>
    <rect style="fill: #ffffff" x="383.2" y="253.124" width="160" height="40"/>
    <rect style="fill: none; fill-opacity:0; stroke-width: 2; stroke: #000000" x="383.2" y="253.124" width="160" height="40"/>
  </g>
  <text font-size="12.8" style="fill: #000000;text-anchor:middle;font-family:sans-serif;font-style:normal;font-weight:normal" x="463.2" y="278.199">
    <tspan x="463.2" y="278.199">[Max Enrollment]</tspan>
  </text>
  <text font-size="12.8" style="fill: #000000;text-anchor:middle;font-family:sans-serif;font-style:normal;font-weight:normal" x="612.2" y="251.199">
    <tspan x="612.2" y="251.199">Semester:</tspan>
  </text>
  <g>
    <rect style="fill: #ffffff" x="580.2" y="253.124" width="160" height="40"/>
    <rect style="fill: none; fill-opacity:0; stroke-width: 2; stroke: #000000" x="580.2" y="253.124" width="160" height="40"/>
  </g>
  <text font-size="12.8" style="fill: #000000;text-anchor:middle;font-family:sans-serif;font-style:normal;font-weight:normal" x="660.2" y="278.199">
    <tspan x="660.2" y="278.199">[Semester]</tspan>
  </text>
  <text font-size="12.8" style="fill: #000000;text-anchor:middle;font-family:sans-serif;font-style:normal;font-weight:normal" x="203.2" y="312.199">
    <tspan x="203.2" y="312.199">Year:</tspan>
  </text>
  <g>
    <rect style="fill: #ffffff" x="184.2" y="314.126" width="160" height="40"/>
    <rect style="fill: none; fill-opacity:0; stroke-width: 2; stroke: #000000" x="184.2" y="314.126" width="160" height="40"/>
  </g>
  <text font-size="12.8" style="fill: #000000;text-anchor:middle;font-family:sans-serif;font-style:normal;font-weight:normal" x="264.2" y="339.201">
    <tspan x="264.2" y="339.201">[Year]</tspan>
  </text>
  <text font-size="12.8" style="fill: #000000;text-anchor:middle;font-family:sans-serif;font-style:normal;font-weight:normal" x="418.2" y="312.201">
    <tspan x="418.2" y="312.201">Start Date:</tspan>
  </text>
  <g>
    <rect style="fill: #ffffff" x="384.2" y="314.126" width="160" height="40"/>
    <rect style="fill: none; fill-opacity:0; stroke-width: 2; stroke: #000000" x="384.2" y="314.126" width="160" height="40"/>
  </g>
  <text font-size="12.8" style="fill: #000000;text-anchor:middle;font-family:sans-serif;font-style:normal;font-weight:normal" x="464.2" y="339.201">
    <tspan x="464.2" y="339.201">[Date Picker]</tspan>
  </text>
  <text font-size="12.8" style="fill: #000000;text-anchor:middle;font-family:sans-serif;font-style:normal;font-weight:normal" x="614.2" y="312.199">
    <tspan x="614.2" y="312.199">End Date:</tspan>
  </text>
  <g>
    <rect style="fill: #ffffff" x="581.2" y="314.126" width="160" height="40"/>
    <rect style="fill: none; fill-opacity:0; stroke-width: 2; stroke: #000000" x="581.2" y="314.126" width="160" height="40"/>
  </g>
  <text font-size="12.8" style="fill: #000000;text-anchor:middle;font-family:sans-serif;font-style:normal;font-weight:normal" x="661.2" y="339.201">
    <tspan x="661.2" y="339.201">[Date Picker]</tspan>
  </text>
  <g>
    <rect style="fill: #ffffff" x="701.2" y="253.15" width="40" height="40"/>
    <rect style="fill: none; fill-opacity:0; stroke-width: 2; stroke: #000000" x="701.2" y="253.15" width="40" height="40"/>
  </g>
  <g>
    <polygon style="fill: #ffffff" points="711.614,253.4 711.614,273.4 701.614,273.4 721.614,293.4 741.614,273.4 731.614,273.4 731.614,253.4 "/>
    <polygon style="fill: none; fill-opacity:0; stroke-width: 2; stroke: #000000" points="711.614,253.4 711.614,273.4 701.614,273.4 721.614,293.4 741.614,273.4 731.614,273.4 731.614,253.4 "/>
    <polygon style="fill: none; fill-opacity:0; stroke-width: 2; stroke: #000000" points="711.614,253.4 711.614,273.4 701.614,273.4 721.614,293.4 741.614,273.4 731.614,273.4 731.614,253.4 "/>
  </g>
  <text font-size="12.8" style="fill: #000000;text-anchor:middle;font-family:sans-serif;font-style:normal;font-weight:normal" x="290.902" y="375.851">
    <tspan x="290.902" y="375.851">Start Time:</tspan>
  </text>
  <g>
    <rect style="fill: #ffffff" x="257.902" y="377.776" width="160" height="40"/>
    <rect style="fill: none; fill-opacity:0; stroke-width: 2; stroke: #000000" x="257.902" y="377.776" width="160" height="40"/>
  </g>
  <text font-size="12.8" style="fill: #000000;text-anchor:middle;font-family:sans-serif;font-style:normal;font-weight:normal" x="337.902" y="402.851">
    <tspan x="337.902" y="402.851">[Time Picker]</tspan>
  </text>
  <text font-size="12.8" style="fill: #000000;text-anchor:middle;font-family:sans-serif;font-style:normal;font-weight:normal" x="502.702" y="376.449">
    <tspan x="502.702" y="376.449">End Time:</tspan>
  </text>
  <g>
    <rect style="fill: #ffffff" x="469.702" y="378.374" width="160" height="40"/>
    <rect style="fill: none; fill-opacity:0; stroke-width: 2; stroke: #000000" x="469.702" y="378.374" width="160" height="40"/>
  </g>
  <text font-size="12.8" style="fill: #000000;text-anchor:middle;font-family:sans-serif;font-style:normal;font-weight:normal" x="549.702" y="403.449">
    <tspan x="549.702" y="403.449">[Time Picker]</tspan>
  </text>
</svg>
