<?xml version="1.0" encoding="UTF-8" standalone="no"?>
<!DOCTYPE svg PUBLIC "-//W3C//DTD SVG 1.0//EN" "http://www.w3.org/TR/2001/PR-SVG-20010719/DTD/svg10.dtd">
<svg width="36cm" height="25cm" viewBox="139 19 702 482" xmlns="http://www.w3.org/2000/svg" xmlns:xlink="http://www.w3.org/1999/xlink">
  <g>
    <rect style="fill: #ffffff" x="140" y="20" width="700" height="480"/>
    <rect style="fill: none; fill-opacity:0; stroke-width: 2; stroke: #000000" x="140" y="20" width="700" height="480"/>
  </g>
  <g>
    <rect style="fill: #ffffff" x="140" y="20" width="700" height="60"/>
    <rect style="fill: none; fill-opacity:0; stroke-width: 2; stroke: #000000" x="140" y="20" width="700" height="60"/>
  </g>
  <text font-size="12.8" style="fill: #000000;text-anchor:start;font-family:sans-serif;font-style:normal;font-weight:normal" x="490" y="50">
    <tspan x="490" y="50"></tspan>
  </text>
  <text font-size="16.9333" style="fill: #000000;text-anchor:middle;font-family:sans-serif;font-style:normal;font-weight:normal" x="490" y="57.725">
    <tspan x="490" y="57.725">COURSELY - View Advisees</tspan>
  </text>
  <g>
    <rect style="fill: #ffffff" x="140" y="80" width="700" height="40"/>
    <rect style="fill: none; fill-opacity:0; stroke-width: 2; stroke: #000000" x="140" y="80" width="700" height="40"/>
  </g>
  <g>
    <rect style="fill: #ffffff" x="720" y="80" width="120" height="40"/>
    <rect style="fill: none; fill-opacity:0; stroke-width: 2; stroke: #000000" x="720" y="80" width="120" height="40"/>
  </g>
  <text font-size="13.5467" style="fill: #000000;text-anchor:middle;font-family:sans-serif;font-style:normal;font-weight:normal" x="780" y="106.375">
    <tspan x="780" y="106.375">LOGOUT</tspan>
  </text>
  <g>
    <rect style="fill: #ffffff" x="140" y="80" width="120" height="40"/>
    <rect style="fill: none; fill-opacity:0; stroke-width: 2; stroke: #000000" x="140" y="80" width="120" height="40"/>
  </g>
  <text font-size="13.5467" style="fill: #000000;text-anchor:middle;font-family:sans-serif;font-style:normal;font-weight:normal" x="200" y="106.375">
    <tspan x="200" y="106.375">VIEW CATALOG</tspan>
  </text>
  <text font-size="12.8" style="fill: #000000;text-anchor:start;font-family:sans-serif;font-style:normal;font-weight:normal" x="720" y="180">
    <tspan x="720" y="180"></tspan>
  </text>
  <g>
    <rect style="fill: #ffffff" x="800" y="120" width="40" height="380"/>
    <rect style="fill: none; fill-opacity:0; stroke-width: 2; stroke: #000000" x="800" y="120" width="40" height="380"/>
  </g>
  <text font-size="12.8" style="fill: #000000;text-anchor:start;font-family:sans-serif;font-style:normal;font-weight:normal" x="780" y="100">
    <tspan x="780" y="100"></tspan>
  </text>
  <g>
    <rect style="fill: #ffffff" x="140" y="120" width="660" height="40"/>
    <rect style="fill: none; fill-opacity:0; stroke-width: 2; stroke: #000000" x="140" y="120" width="660" height="40"/>
  </g>
  <text font-size="14.6756" style="fill: #000000;text-anchor:middle;font-family:sans-serif;font-style:normal;font-weight:normal" x="490" y="105.825">
    <tspan x="490" y="105.825">Override Prereqs for - [Student Name] : [Univ ID]</tspan>
  </text>
  <g>
    <rect style="fill: #ffffff" x="140" y="120" width="120" height="40"/>
    <rect style="fill: none; fill-opacity:0; stroke-width: 2; stroke: #000000" x="140" y="120" width="120" height="40"/>
  </g>
  <text font-size="12.8" style="fill: #000000;text-anchor:middle;font-family:sans-serif;font-style:normal;font-weight:normal" x="200" y="145.075">
    <tspan x="200" y="145.075">Home</tspan>
  </text>
  <text font-size="12.8" style="fill: #000000;text-anchor:start;font-family:sans-serif;font-style:normal;font-weight:normal" x="460" y="400">
    <tspan x="460" y="400"></tspan>
  </text>
  <g>
    <rect style="fill: #ffffff" x="140" y="460" width="560" height="40"/>
    <rect style="fill: none; fill-opacity:0; stroke-width: 2; stroke: #000000" x="140" y="460" width="560" height="40"/>
  </g>
  <text font-size="12.8" style="fill: #000000;text-anchor:middle;font-family:sans-serif;font-style:normal;font-weight:normal" x="420" y="485.075">
    <tspan x="420" y="485.075">[ERROR MESSAGES]</tspan>
  </text>
  <g>
    <rect style="fill: #ffffff" x="760" y="160" width="40" height="300"/>
    <rect style="fill: none; fill-opacity:0; stroke-width: 2; stroke: #000000" x="760" y="160" width="40" height="300"/>
  </g>
  <g>
    <rect style="fill: #ffffff" x="760" y="160" width="40" height="40"/>
    <rect style="fill: none; fill-opacity:0; stroke-width: 2; stroke: #000000" x="760" y="160" width="40" height="40"/>
  </g>
  <g>
    <rect style="fill: #ffffff" x="760" y="420" width="40" height="40"/>
    <rect style="fill: none; fill-opacity:0; stroke-width: 2; stroke: #000000" x="760" y="420" width="40" height="40"/>
  </g>
  <g>
    <polygon style="fill: #ffffff" points="770,420 770,440 760,440 780,460 800,440 790,440 790,420 "/>
    <polygon style="fill: none; fill-opacity:0; stroke-width: 2; stroke: #000000" points="770,420 770,440 760,440 780,460 800,440 790,440 790,420 "/>
    <polygon style="fill: none; fill-opacity:0; stroke-width: 2; stroke: #000000" points="770,420 770,440 760,440 780,460 800,440 790,440 790,420 "/>
  </g>
  <g>
    <polygon style="fill: #ffffff" points="770,200 770,180 760,180 780,160 800,180 790,180 790,200 "/>
    <polygon style="fill: none; fill-opacity:0; stroke-width: 2; stroke: #000000" points="770,200 770,180 760,180 780,160 800,180 790,180 790,200 "/>
    <polygon style="fill: none; fill-opacity:0; stroke-width: 2; stroke: #000000" points="770,200 770,180 760,180 780,160 800,180 790,180 790,200 "/>
  </g>
  <g>
    <rect style="fill: #ffffff" x="260" y="120" width="120" height="40"/>
    <rect style="fill: none; fill-opacity:0; stroke-width: 2; stroke: #000000" x="260" y="120" width="120" height="40"/>
  </g>
  <g>
    <rect style="fill: #ffffff" x="380" y="120" width="40" height="40"/>
    <rect style="fill: none; fill-opacity:0; stroke-width: 2; stroke: #000000" x="380" y="120" width="40" height="40"/>
  </g>
  <g>
    <polygon style="fill: #ffffff" points="390,120 390,140 380,140 400,160 420,140 410,140 410,120 "/>
    <polygon style="fill: none; fill-opacity:0; stroke-width: 2; stroke: #000000" points="390,120 390,140 380,140 400,160 420,140 410,140 410,120 "/>
    <polygon style="fill: none; fill-opacity:0; stroke-width: 2; stroke: #000000" points="390,120 390,140 380,140 400,160 420,140 410,140 410,120 "/>
  </g>
  <g>
    <rect style="fill: #ffffff" x="450" y="120" width="120" height="40"/>
    <rect style="fill: none; fill-opacity:0; stroke-width: 2; stroke: #000000" x="450" y="120" width="120" height="40"/>
  </g>
  <g>
    <rect style="fill: #ffffff" x="570" y="120" width="40" height="40"/>
    <rect style="fill: none; fill-opacity:0; stroke-width: 2; stroke: #000000" x="570" y="120" width="40" height="40"/>
  </g>
  <g>
    <polygon style="fill: #ffffff" points="580,120 580,140 570,140 590,160 610,140 600,140 600,120 "/>
    <polygon style="fill: none; fill-opacity:0; stroke-width: 2; stroke: #000000" points="580,120 580,140 570,140 590,160 610,140 600,140 600,120 "/>
    <polygon style="fill: none; fill-opacity:0; stroke-width: 2; stroke: #000000" points="580,120 580,140 570,140 590,160 610,140 600,140 600,120 "/>
  </g>
  <g>
    <rect style="fill: #ffffff" x="640" y="120" width="120" height="40"/>
    <rect style="fill: none; fill-opacity:0; stroke-width: 2; stroke: #000000" x="640" y="120" width="120" height="40"/>
  </g>
  <g>
    <rect style="fill: #ffffff" x="760" y="120" width="40" height="40"/>
    <rect style="fill: none; fill-opacity:0; stroke-width: 2; stroke: #000000" x="760" y="120" width="40" height="40"/>
  </g>
  <g>
    <polygon style="fill: #ffffff" points="770,120 770,140 760,140 780,160 800,140 790,140 790,120 "/>
    <polygon style="fill: none; fill-opacity:0; stroke-width: 2; stroke: #000000" points="770,120 770,140 760,140 780,160 800,140 790,140 790,120 "/>
    <polygon style="fill: none; fill-opacity:0; stroke-width: 2; stroke: #000000" points="770,120 770,140 760,140 780,160 800,140 790,140 790,120 "/>
  </g>
  <text font-size="12.8" style="fill: #000000;text-anchor:middle;font-family:sans-serif;font-style:normal;font-weight:normal" x="320" y="145.075">
    <tspan x="320" y="145.075">[School]</tspan>
  </text>
  <text font-size="12.8" style="fill: #000000;text-anchor:middle;font-family:sans-serif;font-style:normal;font-weight:normal" x="510" y="145.075">
    <tspan x="510" y="145.075">[Department]</tspan>
  </text>
  <text font-size="12.8" style="fill: #000000;text-anchor:middle;font-family:sans-serif;font-style:normal;font-weight:normal" x="700" y="145.075">
    <tspan x="700" y="145.075">[Course]</tspan>
  </text>
  <g>
    <rect style="fill: #ffffff" x="160" y="180" width="580" height="260"/>
    <rect style="fill: none; fill-opacity:0; stroke-width: 2; stroke: #000000" x="160" y="180" width="580" height="260"/>
  </g>
  <g>
    <rect style="fill: #ffffff" x="200" y="240" width="100" height="40"/>
    <rect style="fill: none; fill-opacity:0; stroke-width: 2; stroke: #000000" x="200" y="240" width="100" height="40"/>
  </g>
  <text font-size="12.8" style="fill: #000000;text-anchor:middle;font-family:sans-serif;font-style:normal;font-weight:normal" x="250" y="265.075">
    <tspan x="250" y="265.075">[Section Name]</tspan>
  </text>
  <g>
    <rect style="fill: #ffffff" x="333" y="240" width="100" height="40"/>
    <rect style="fill: none; fill-opacity:0; stroke-width: 2; stroke: #000000" x="333" y="240" width="100" height="40"/>
  </g>
  <text font-size="12.8" style="fill: #000000;text-anchor:middle;font-family:sans-serif;font-style:normal;font-weight:normal" x="383" y="265.075">
    <tspan x="383" y="265.075">[Section No]</tspan>
  </text>
  <g>
    <rect style="fill: #ffffff" x="464" y="211" width="100" height="40"/>
    <rect style="fill: none; fill-opacity:0; stroke-width: 2; stroke: #000000" x="464" y="211" width="100" height="40"/>
  </g>
  <text font-size="12.8" style="fill: #000000;text-anchor:middle;font-family:sans-serif;font-style:normal;font-weight:normal" x="514" y="236.075">
    <tspan x="514" y="236.075">[Start Date]</tspan>
  </text>
  <g>
    <rect style="fill: #ffffff" x="464" y="286" width="100" height="40"/>
    <rect style="fill: none; fill-opacity:0; stroke-width: 2; stroke: #000000" x="464" y="286" width="100" height="40"/>
  </g>
  <text font-size="12.8" style="fill: #000000;text-anchor:middle;font-family:sans-serif;font-style:normal;font-weight:normal" x="514" y="311.075">
    <tspan x="514" y="311.075">[End Date]</tspan>
  </text>
  <g>
    <rect style="fill: #ffffff" x="597" y="211" width="100" height="40"/>
    <rect style="fill: none; fill-opacity:0; stroke-width: 2; stroke: #000000" x="597" y="211" width="100" height="40"/>
  </g>
  <text font-size="12.8" style="fill: #000000;text-anchor:middle;font-family:sans-serif;font-style:normal;font-weight:normal" x="647" y="236.075">
    <tspan x="647" y="236.075">[Start Time]</tspan>
  </text>
  <g>
    <rect style="fill: #ffffff" x="597" y="286" width="100" height="40"/>
    <rect style="fill: none; fill-opacity:0; stroke-width: 2; stroke: #000000" x="597" y="286" width="100" height="40"/>
  </g>
  <text font-size="12.8" style="fill: #000000;text-anchor:middle;font-family:sans-serif;font-style:normal;font-weight:normal" x="647" y="311.075">
    <tspan x="647" y="311.075">[End Time]</tspan>
  </text>
  <g>
    <rect style="fill: #ffffff" x="700" y="460" width="100" height="40"/>
    <rect style="fill: none; fill-opacity:0; stroke-width: 2; stroke: #000000" x="700" y="460" width="100" height="40"/>
  </g>
  <text font-size="12.8" style="fill: #000000;text-anchor:middle;font-family:sans-serif;font-style:normal;font-weight:normal" x="750" y="477.075">
    <tspan x="750" y="477.075">Add Via</tspan>
    <tspan x="750" y="493.075">Override</tspan>
  </text>
  <g>
    <rect style="fill: #ffffff" x="200" y="340" width="100" height="40"/>
    <rect style="fill: none; fill-opacity:0; stroke-width: 2; stroke: #000000" x="200" y="340" width="100" height="40"/>
  </g>
  <text font-size="12.8" style="fill: #000000;text-anchor:middle;font-family:sans-serif;font-style:normal;font-weight:normal" x="250" y="365.075">
    <tspan x="250" y="365.075">[Building]</tspan>
  </text>
  <g>
    <rect style="fill: #ffffff" x="333" y="339" width="100" height="40"/>
    <rect style="fill: none; fill-opacity:0; stroke-width: 2; stroke: #000000" x="333" y="339" width="100" height="40"/>
  </g>
  <text font-size="12.8" style="fill: #000000;text-anchor:middle;font-family:sans-serif;font-style:normal;font-weight:normal" x="383" y="364.075">
    <tspan x="383" y="364.075">[Room No]</tspan>
  </text>
  <g>
    <rect style="fill: #ffffff" x="463" y="361" width="100" height="40"/>
    <rect style="fill: none; fill-opacity:0; stroke-width: 2; stroke: #000000" x="463" y="361" width="100" height="40"/>
  </g>
  <text font-size="12.8" style="fill: #000000;text-anchor:middle;font-family:sans-serif;font-style:normal;font-weight:normal" x="513" y="378.075">
    <tspan x="513" y="378.075">[Current </tspan>
    <tspan x="513" y="394.075">Enrollment]</tspan>
  </text>
  <g>
    <rect style="fill: #ffffff" x="596" y="361" width="100" height="40"/>
    <rect style="fill: none; fill-opacity:0; stroke-width: 2; stroke: #000000" x="596" y="361" width="100" height="40"/>
  </g>
  <text font-size="12.8" style="fill: #000000;text-anchor:middle;font-family:sans-serif;font-style:normal;font-weight:normal" x="646" y="378.075">
    <tspan x="646" y="378.075">[Max </tspan>
    <tspan x="646" y="394.075">Enrollment]</tspan>
  </text>
  <text font-size="12.8" style="fill: #000000;text-anchor:start;font-family:sans-serif;font-style:normal;font-weight:normal" x="205" y="238">
    <tspan x="205" y="238">Name:</tspan>
  </text>
  <text font-size="12.8" style="fill: #000000;text-anchor:start;font-family:sans-serif;font-style:normal;font-weight:normal" x="341.2" y="238.2">
    <tspan x="341.2" y="238.2">Number:</tspan>
  </text>
  <text font-size="12.8" style="fill: #000000;text-anchor:start;font-family:sans-serif;font-style:normal;font-weight:normal" x="468.4" y="208.6">
    <tspan x="468.4" y="208.6">Start Date:</tspan>
  </text>
  <text font-size="12.8" style="fill: #000000;text-anchor:start;font-family:sans-serif;font-style:normal;font-weight:normal" x="601.6" y="209">
    <tspan x="601.6" y="209">Start Time:</tspan>
  </text>
  <text font-size="12.8" style="fill: #000000;text-anchor:start;font-family:sans-serif;font-style:normal;font-weight:normal" x="468" y="284">
    <tspan x="468" y="284">End Date:</tspan>
  </text>
  <text font-size="12.8" style="fill: #000000;text-anchor:start;font-family:sans-serif;font-style:normal;font-weight:normal" x="600" y="283.8">
    <tspan x="600" y="283.8">End Time:</tspan>
  </text>
  <text font-size="12.8" style="fill: #000000;text-anchor:start;font-family:sans-serif;font-style:normal;font-weight:normal" x="599.2" y="359.2">
    <tspan x="599.2" y="359.2">Max Enrollment:</tspan>
  </text>
  <text font-size="12.8" style="fill: #000000;text-anchor:start;font-family:sans-serif;font-style:normal;font-weight:normal" x="460.4" y="358.6">
    <tspan x="460.4" y="358.6">Current Enrollment:</tspan>
  </text>
  <text font-size="12.8" style="fill: #000000;text-anchor:start;font-family:sans-serif;font-style:normal;font-weight:normal" x="207" y="338">
    <tspan x="207" y="338">Building:</tspan>
  </text>
  <text font-size="12.8" style="fill: #000000;text-anchor:start;font-family:sans-serif;font-style:normal;font-weight:normal" x="338.8" y="336.4">
    <tspan x="338.8" y="336.4">Room:</tspan>
  </text>
</svg>
