<?xml version="1.0" encoding="UTF-8" standalone="no"?>
<!DOCTYPE svg PUBLIC "-//W3C//DTD SVG 1.0//EN" "http://www.w3.org/TR/2001/PR-SVG-20010719/DTD/svg10.dtd">
<svg width="36cm" height="25cm" viewBox="139 19 702 482" xmlns="http://www.w3.org/2000/svg" xmlns:xlink="http://www.w3.org/1999/xlink">
  <g>
    <rect style="fill: #ffffff" x="140" y="20" width="700" height="480"/>
    <rect style="fill: none; fill-opacity:0; stroke-width: 2; stroke: #000000" x="140" y="20" width="700" height="480"/>
  </g>
  <g>
    <rect style="fill: #ffffff" x="140" y="20" width="700" height="60"/>
    <rect style="fill: none; fill-opacity:0; stroke-width: 2; stroke: #000000" x="140" y="20" width="700" height="60"/>
  </g>
  <text font-size="12.8" style="fill: #000000;text-anchor:start;font-family:sans-serif;font-style:normal;font-weight:normal" x="490" y="50">
    <tspan x="490" y="50"></tspan>
  </text>
  <text font-size="16.9333" style="fill: #000000;text-anchor:middle;font-family:sans-serif;font-style:normal;font-weight:normal" x="490" y="57.725">
    <tspan x="490" y="57.725">COURSELY - Manage Advisees</tspan>
  </text>
  <g>
    <rect style="fill: #ffffff" x="140" y="80" width="700" height="40"/>
    <rect style="fill: none; fill-opacity:0; stroke-width: 2; stroke: #000000" x="140" y="80" width="700" height="40"/>
  </g>
  <g>
    <rect style="fill: #ffffff" x="720" y="80" width="120" height="40"/>
    <rect style="fill: none; fill-opacity:0; stroke-width: 2; stroke: #000000" x="720" y="80" width="120" height="40"/>
  </g>
  <text font-size="13.5467" style="fill: #000000;text-anchor:middle;font-family:sans-serif;font-style:normal;font-weight:normal" x="780" y="106.375">
    <tspan x="780" y="106.375">LOGOUT</tspan>
  </text>
  <g>
    <rect style="fill: #ffffff" x="140" y="80" width="120" height="40"/>
    <rect style="fill: none; fill-opacity:0; stroke-width: 2; stroke: #000000" x="140" y="80" width="120" height="40"/>
  </g>
  <text font-size="13.5467" style="fill: #000000;text-anchor:middle;font-family:sans-serif;font-style:normal;font-weight:normal" x="200" y="106.375">
    <tspan x="200" y="106.375">VIEW CATALOG</tspan>
  </text>
  <g>
    <rect style="fill: #ffffff" x="800" y="120" width="40" height="380"/>
    <rect style="fill: none; fill-opacity:0; stroke-width: 2; stroke: #000000" x="800" y="120" width="40" height="380"/>
  </g>
  <text font-size="12.8" style="fill: #000000;text-anchor:start;font-family:sans-serif;font-style:normal;font-weight:normal" x="780" y="100">
    <tspan x="780" y="100"></tspan>
  </text>
  <g>
    <rect style="fill: #ffffff" x="140" y="120" width="660" height="40"/>
    <rect style="fill: none; fill-opacity:0; stroke-width: 2; stroke: #000000" x="140" y="120" width="660" height="40"/>
  </g>
  <text font-size="14.6756" style="fill: #000000;text-anchor:middle;font-family:sans-serif;font-style:normal;font-weight:normal" x="490" y="105.825">
    <tspan x="490" y="105.825">Advisees</tspan>
  </text>
  <g>
    <rect style="fill: #ffffff" x="140" y="120" width="120" height="40"/>
    <rect style="fill: none; fill-opacity:0; stroke-width: 2; stroke: #000000" x="140" y="120" width="120" height="40"/>
  </g>
  <text font-size="12.8" style="fill: #000000;text-anchor:middle;font-family:sans-serif;font-style:normal;font-weight:normal" x="200" y="145.075">
    <tspan x="200" y="145.075">Home</tspan>
  </text>
  <g>
    <rect style="fill: #ffffff" x="140" y="460" width="420" height="40"/>
    <rect style="fill: none; fill-opacity:0; stroke-width: 2; stroke: #000000" x="140" y="460" width="420" height="40"/>
  </g>
  <text font-size="12.8" style="fill: #000000;text-anchor:middle;font-family:sans-serif;font-style:normal;font-weight:normal" x="350" y="485.075">
    <tspan x="350" y="485.075">[ERROR MESSAGES]</tspan>
  </text>
  <g>
    <rect style="fill: #ffffff" x="160" y="160" width="580" height="40"/>
    <rect style="fill: none; fill-opacity:0; stroke-width: 2; stroke: #000000" x="160" y="160" width="580" height="40"/>
  </g>
  <g>
    <rect style="fill: #ffffff" x="160" y="203" width="580" height="40"/>
    <rect style="fill: none; fill-opacity:0; stroke-width: 2; stroke: #000000" x="160" y="203" width="580" height="40"/>
  </g>
  <g>
    <rect style="fill: #ffffff" x="160" y="247" width="580" height="40"/>
    <rect style="fill: none; fill-opacity:0; stroke-width: 2; stroke: #000000" x="160" y="247" width="580" height="40"/>
  </g>
  <g>
    <rect style="fill: #ffffff" x="160" y="290" width="580" height="40"/>
    <rect style="fill: none; fill-opacity:0; stroke-width: 2; stroke: #000000" x="160" y="290" width="580" height="40"/>
  </g>
  <g>
    <rect style="fill: #ffffff" x="160" y="333" width="580" height="40"/>
    <rect style="fill: none; fill-opacity:0; stroke-width: 2; stroke: #000000" x="160" y="333" width="580" height="40"/>
  </g>
  <g>
    <rect style="fill: #ffffff" x="160" y="376" width="580" height="40"/>
    <rect style="fill: none; fill-opacity:0; stroke-width: 2; stroke: #000000" x="160" y="376" width="580" height="40"/>
  </g>
  <g>
    <rect style="fill: #ffffff" x="160" y="419" width="580" height="40"/>
    <rect style="fill: none; fill-opacity:0; stroke-width: 2; stroke: #000000" x="160" y="419" width="580" height="40"/>
  </g>
  <g>
    <rect style="fill: #ffffff" x="160" y="160" width="120" height="40"/>
    <rect style="fill: none; fill-opacity:0; stroke-width: 2; stroke: #000000" x="160" y="160" width="120" height="40"/>
  </g>
  <text font-size="12.8" style="fill: #000000;text-anchor:middle;font-family:sans-serif;font-style:normal;font-weight:normal" x="220" y="185.075">
    <tspan x="220" y="185.075">[Advisee Name]</tspan>
  </text>
  <g>
    <rect style="fill: #ffffff" x="280" y="160" width="120" height="40"/>
    <rect style="fill: none; fill-opacity:0; stroke-width: 2; stroke: #000000" x="280" y="160" width="120" height="40"/>
  </g>
  <text font-size="12.8" style="fill: #000000;text-anchor:middle;font-family:sans-serif;font-style:normal;font-weight:normal" x="340" y="185.075">
    <tspan x="340" y="185.075">[Major]</tspan>
  </text>
  <g>
    <rect style="fill: #ffffff" x="620" y="160" width="120" height="40"/>
    <rect style="fill: none; fill-opacity:0; stroke-width: 2; stroke: #000000" x="620" y="160" width="120" height="40"/>
  </g>
  <text font-size="12.8" style="fill: #000000;text-anchor:middle;font-family:sans-serif;font-style:normal;font-weight:normal" x="680" y="185.075">
    <tspan x="680" y="185.075">[Univ ID]</tspan>
  </text>
  <g>
    <rect style="fill: #ffffff" x="160" y="419" width="120" height="40"/>
    <rect style="fill: none; fill-opacity:0; stroke-width: 2; stroke: #000000" x="160" y="419" width="120" height="40"/>
  </g>
  <text font-size="12.8" style="fill: #000000;text-anchor:middle;font-family:sans-serif;font-style:normal;font-weight:normal" x="220" y="444.075">
    <tspan x="220" y="444.075">[Advisee Name]</tspan>
  </text>
  <g>
    <rect style="fill: #ffffff" x="280" y="419" width="120" height="40"/>
    <rect style="fill: none; fill-opacity:0; stroke-width: 2; stroke: #000000" x="280" y="419" width="120" height="40"/>
  </g>
  <text font-size="12.8" style="fill: #000000;text-anchor:middle;font-family:sans-serif;font-style:normal;font-weight:normal" x="340" y="444.075">
    <tspan x="340" y="444.075">[Major]</tspan>
  </text>
  <g>
    <rect style="fill: #ffffff" x="620" y="419" width="120" height="40"/>
    <rect style="fill: none; fill-opacity:0; stroke-width: 2; stroke: #000000" x="620" y="419" width="120" height="40"/>
  </g>
  <text font-size="12.8" style="fill: #000000;text-anchor:middle;font-family:sans-serif;font-style:normal;font-weight:normal" x="680" y="444.075">
    <tspan x="680" y="444.075">[Univ ID]</tspan>
  </text>
  <g>
    <rect style="fill: #ffffff" x="760" y="160" width="40" height="300"/>
    <rect style="fill: none; fill-opacity:0; stroke-width: 2; stroke: #000000" x="760" y="160" width="40" height="300"/>
  </g>
  <g>
    <rect style="fill: #ffffff" x="760" y="160" width="40" height="40"/>
    <rect style="fill: none; fill-opacity:0; stroke-width: 2; stroke: #000000" x="760" y="160" width="40" height="40"/>
  </g>
  <g>
    <rect style="fill: #ffffff" x="760" y="420" width="40" height="40"/>
    <rect style="fill: none; fill-opacity:0; stroke-width: 2; stroke: #000000" x="760" y="420" width="40" height="40"/>
  </g>
  <g>
    <polygon style="fill: #ffffff" points="770,420 770,440 760,440 780,460 800,440 790,440 790,420 "/>
    <polygon style="fill: none; fill-opacity:0; stroke-width: 2; stroke: #000000" points="770,420 770,440 760,440 780,460 800,440 790,440 790,420 "/>
    <polygon style="fill: none; fill-opacity:0; stroke-width: 2; stroke: #000000" points="770,420 770,440 760,440 780,460 800,440 790,440 790,420 "/>
  </g>
  <g>
    <polygon style="fill: #ffffff" points="770,200 770,180 760,180 780,160 800,180 790,180 790,200 "/>
    <polygon style="fill: none; fill-opacity:0; stroke-width: 2; stroke: #000000" points="770,200 770,180 760,180 780,160 800,180 790,180 790,200 "/>
    <polygon style="fill: none; fill-opacity:0; stroke-width: 2; stroke: #000000" points="770,200 770,180 760,180 780,160 800,180 790,180 790,200 "/>
  </g>
  <g>
    <rect style="fill: #ffffff" x="680" y="460" width="120" height="40"/>
    <rect style="fill: none; fill-opacity:0; stroke-width: 2; stroke: #000000" x="680" y="460" width="120" height="40"/>
  </g>
  <text font-size="12.8" style="fill: #000000;text-anchor:middle;font-family:sans-serif;font-style:normal;font-weight:normal" x="740" y="485.075">
    <tspan x="740" y="485.075">Add to Section</tspan>
  </text>
  <g>
    <rect style="fill: #ffffff" x="560" y="460" width="120" height="40"/>
    <rect style="fill: none; fill-opacity:0; stroke-width: 2; stroke: #000000" x="560" y="460" width="120" height="40"/>
  </g>
  <text font-size="12.8" style="fill: #000000;text-anchor:middle;font-family:sans-serif;font-style:normal;font-weight:normal" x="620" y="485.075">
    <tspan x="620" y="485.075">View Grades</tspan>
  </text>
</svg>
